<?xml version="1.0" encoding="UTF-8" standalone="no"?><!DOCTYPE svg PUBLIC "-//W3C//DTD SVG 1.1//EN" "http://www.w3.org/Graphics/SVG/1.1/DTD/svg11.dtd"><svg width="100%" height="100%" viewBox="0 0 1667 2500" version="1.1" xmlns="http://www.w3.org/2000/svg" xmlns:xlink="http://www.w3.org/1999/xlink" xml:space="preserve" xmlns:serif="http://www.serif.com/" style="fill-rule:evenodd;clip-rule:evenodd;stroke-linejoin:round;stroke-miterlimit:2;"><rect id="Prancheta1" x="0" y="0" width="1666.67" height="2500" style="fill:none;"/><g><path d="M1229.17,220.833c241.462,0 437.5,196.038 437.5,437.5c-0,241.463 -196.038,437.5 -437.5,437.5c-241.463,0 -437.5,-196.037 -437.5,-437.5c-0,-241.462 196.037,-437.5 437.5,-437.5Zm86.446,666.987l-0,-289.509c-0,-15.068 -11.824,-27.282 -26.409,-27.282l-147.893,-0c-14.586,-0 -26.409,12.214 -26.409,27.282l-0,65.166c-0,15.069 11.823,27.283 26.409,27.283l26.409,0l0,197.06l-26.409,0c-14.586,0 -26.409,12.215 -26.409,27.283l-0,65.166c-0,15.068 11.823,27.283 26.409,27.283l200.711,-0c14.587,-0.001 26.41,-12.215 26.41,-27.283l-0,-65.166c-0,-15.068 -11.823,-27.282 -26.41,-27.283l-26.409,0Zm-73.946,-578.705c-52.509,-0 -95.074,43.973 -95.074,98.218c-0,54.244 42.565,98.217 95.074,98.217c52.508,0 95.073,-43.973 95.073,-98.217c0,-54.245 -42.566,-98.218 -95.073,-98.218Z" style="fill:#fff;"/><path d="M946.618,220.833c-143.349,92.82 -238.285,254.161 -238.285,437.5c0,287.456 233.378,520.834 520.834,520.834c85.518,-0 166.25,-20.656 237.5,-57.26l-0,865.593c-0,202.369 -164.298,366.667 -366.667,366.667l-733.333,-0c-202.369,-0 -366.667,-164.298 -366.667,-366.667l0,-1400c0,-202.369 164.298,-366.667 366.667,-366.667l579.951,0Zm-346.618,2012.5c-36.794,0 -66.667,-29.872 -66.667,-66.666c0,-36.795 29.873,-66.667 66.667,-66.667l266.667,0l0.431,0.001c36.596,0.232 66.235,30.015 66.235,66.666c0,36.794 -29.872,66.666 -66.666,66.666l-266.667,0Z" style="fill:#fff;"/></g></svg>