<?xml version="1.0" encoding="UTF-8" standalone="no"?><!DOCTYPE svg PUBLIC "-//W3C//DTD SVG 1.1//EN" "http://www.w3.org/Graphics/SVG/1.1/DTD/svg11.dtd"><svg width="100%" height="100%" viewBox="0 0 1667 2500" version="1.1" xmlns="http://www.w3.org/2000/svg" xmlns:xlink="http://www.w3.org/1999/xlink" xml:space="preserve" xmlns:serif="http://www.serif.com/" style="fill-rule:evenodd;clip-rule:evenodd;stroke-linejoin:round;stroke-miterlimit:2;"><rect id="Prancheta1" x="0" y="0" width="1666.67" height="2500" style="fill:none;"/><clipPath id="_clip1"><rect x="0" y="0" width="1666.67" height="2500"/></clipPath><g clip-path="url(#_clip1)"><g><path d="M1378.65,2042.32l-1084.14,8.151c-85.317,2.062 -82.558,-86.068 -82.558,-86.068l-3.621,-270.372l-169.271,-0c-21.573,-0.002 -39.062,-17.415 -39.062,-38.892l-0,-427.813c-0,-85.918 69.953,-155.567 156.25,-155.568l52.083,-0l0,-544.489c0,-42.958 34.976,-77.782 78.125,-77.784l1077.41,6.635c48.889,3.713 85.183,36.614 87.724,78.176l6.743,537.462l52.084,-0c86.298,0.002 156.25,69.651 156.25,155.568l-0,427.813c-0,21.476 -17.488,38.889 -39.063,38.892l-169.271,-0l-1.312,261.107c1.159,47.132 -38.922,87.623 -78.371,87.182Zm-128.65,-452.002l-833.333,0l2.858,271.66l403.77,-1.797l426.657,1.736l0.048,-271.599Zm156.25,-181.496c-43.145,0 -78.125,-34.828 -78.125,-77.784c-0,-42.956 34.98,-77.784 78.125,-77.784c43.145,0 78.125,34.828 78.125,77.784c-0,42.956 -34.98,77.784 -78.125,77.784Zm-167.098,-743.811l-833.249,3.244l-1.586,591.727l834.629,4.063l0.206,-599.034Z" style="fill:#fff;"/><path d="M742.442,834.727l0,-54.449c0,-29.817 24.089,-53.8 54.037,-53.8l36.133,-0c29.948,-0 54.036,23.983 54.036,53.8l0,55.097c50.456,2.593 99.284,19.77 139.974,49.912c18.229,13.288 20.182,39.864 3.906,55.421l-53.059,50.235c-12.37,11.992 -30.925,12.316 -45.573,3.241c-17.579,-11.019 -37.11,-16.529 -57.943,-16.529l-126.628,0c-29.297,0 -53.06,26.577 -53.06,59.311c0,26.576 16.276,50.235 39.388,57.041l202.8,60.607c83.659,24.956 142.253,105.009 142.253,194.784c-0,110.195 -85.938,199.322 -192.383,202.239l-0,54.449c-0,29.817 -24.089,53.801 -54.037,53.801l-36.133,-0c-29.947,-0 -54.036,-23.984 -54.036,-53.801l-0,-55.097c-50.456,-2.593 -99.284,-19.77 -139.974,-49.912c-18.229,-13.288 -20.182,-39.864 -3.906,-55.421l53.06,-50.235c12.369,-11.992 30.924,-12.316 45.573,-3.241c17.578,11.019 37.109,16.529 57.942,16.529l126.628,-0c29.297,-0 53.06,-26.576 53.06,-59.311c-0,-26.576 -16.276,-50.235 -39.388,-57.041l-202.8,-60.607c-83.659,-24.956 -142.252,-105.008 -142.252,-194.784c0.325,-110.107 85.801,-199.181 192.382,-202.239Z" style="fill:#fff;"/></g></g></svg>