<?xml version="1.0" encoding="UTF-8" standalone="no"?><!DOCTYPE svg PUBLIC "-//W3C//DTD SVG 1.1//EN" "http://www.w3.org/Graphics/SVG/1.1/DTD/svg11.dtd"><svg width="100%" height="100%" viewBox="0 0 1667 2500" version="1.1" xmlns="http://www.w3.org/2000/svg" xmlns:xlink="http://www.w3.org/1999/xlink" xml:space="preserve" xmlns:serif="http://www.serif.com/" style="fill-rule:evenodd;clip-rule:evenodd;stroke-linecap:round;stroke-miterlimit:1.5;"><rect id="Prancheta1" x="0" y="0" width="1666.67" height="2500" style="fill:none;"/><clipPath id="_clip1"><rect x="0" y="0" width="1666.67" height="2500"/></clipPath><g clip-path="url(#_clip1)"><g><path d="M1284.71,362.5c-19.201,-0 -34.713,15.512 -34.713,34.713c-0,19.201 15.512,34.713 34.713,34.713l0,11.933c0,45.995 18.333,90.146 50.877,122.689l73.548,73.657l-73.548,73.657c-32.544,32.544 -50.877,76.695 -50.877,122.69l0,11.933c-19.201,-0 -34.713,15.512 -34.713,34.713c-0,19.2 15.512,34.713 34.713,34.713l347.132,-0c19.201,-0 34.713,-15.513 34.713,-34.713c0,-19.201 -15.512,-34.713 -34.713,-34.713l0,-11.933c0,-45.995 -18.333,-90.146 -50.877,-122.69l-73.548,-73.657l73.657,-73.657c32.544,-32.543 50.876,-76.694 50.876,-122.689l0,-11.933c19.201,0 34.714,-15.512 34.714,-34.713c-0,-19.201 -15.513,-34.713 -34.714,-34.713l-347.24,-0Zm69.427,81.359l-0,-11.933l208.279,0l-0,11.933c-0,20.611 -6.075,40.571 -17.357,57.494l-173.566,-0c-11.173,-16.923 -17.356,-36.883 -17.356,-57.494Zm17.356,335.199c3.797,-5.749 8.245,-11.173 13.126,-16.163l73.657,-73.549l73.657,73.657c4.99,4.99 9.329,10.414 13.235,16.164l-173.675,-0l0,-0.109Z" style="fill:#fff;fill-rule:nonzero;"/><g><g><path d="M1211.32,1857.41l-104.479,-0l0,146.828l-999.533,0.132l-0.215,-146.96l-104.106,-0l-0,206.014c-0,36.52 23.619,66.17 52.712,66.17l1102.91,-0c29.093,-0 52.713,-29.65 52.713,-66.17l-0,-206.014Z" style="fill:#fff;stroke:#fff;stroke-width:4.17px;"/><path d="M535.511,1627.18l143.281,-0l-0,120.97l133.047,-0l-204.688,204.687l-204.687,-204.687l133.047,-0l-0,-120.97Z" style="fill:#fff;stroke:#fff;stroke-width:4.17px;"/></g><path d="M607.151,529.412l418.876,241.838l-0,483.675l-418.876,241.838l-418.875,-241.838l-0,-483.675l418.875,-241.838Z" style="fill:none;"/><clipPath id="_clip2"><path d="M607.151,529.412l418.876,241.838l-0,483.675l-418.876,241.838l-418.875,-241.838l-0,-483.675l418.875,-241.838Z"/></clipPath><g clip-path="url(#_clip2)"><g transform="matrix(0.485177,0,0,1,1726.13,0)"><text x="-2800.2px" y="1195.1px" style="font-family:'Helvetica-Bold', 'Helvetica';font-weight:700;font-size:496.057px;fill:#fff;">NFT</text></g></g><path d="M607.151,529.412l418.876,241.838l-0,483.675l-418.876,241.838l-418.875,-241.838l-0,-483.675l418.875,-241.838Z" style="fill:none;stroke:#fff;stroke-width:133.33px;stroke-linejoin:round;"/></g></g></g></svg>