<?xml version="1.0" encoding="UTF-8" standalone="no"?><!DOCTYPE svg PUBLIC "-//W3C//DTD SVG 1.1//EN" "http://www.w3.org/Graphics/SVG/1.1/DTD/svg11.dtd"><svg width="100%" height="100%" viewBox="0 0 1667 2500" version="1.1" xmlns="http://www.w3.org/2000/svg" xmlns:xlink="http://www.w3.org/1999/xlink" xml:space="preserve" xmlns:serif="http://www.serif.com/" style="fill-rule:evenodd;clip-rule:evenodd;stroke-linejoin:round;stroke-miterlimit:2;"><rect id="Prancheta1" x="0" y="0" width="1666.67" height="2500" style="fill:none;"/><clipPath id="_clip1"><rect x="0" y="0" width="1666.67" height="2500"/></clipPath><g clip-path="url(#_clip1)"><g><path d="M747.999,1710.33l787.429,0c72.387,0 131.239,-58.852 131.239,-131.238l-0,-524.953c-0,-72.386 -58.852,-131.238 -131.239,-131.238l-306.564,-0c-34.86,-0 -68.285,-13.739 -92.892,-38.346l-54.341,-54.546c-24.607,-24.607 -58.032,-38.346 -92.892,-38.346l-240.74,-0c-72.386,-0 -131.238,58.852 -131.238,131.238l-0,656.191c-0,72.386 58.852,131.238 131.238,131.238Zm250.557,-460.564l0,-47.719c0,-79.035 64.123,-143.157 143.158,-143.157c79.035,-0 143.157,64.122 143.157,143.157l0,47.719l15.907,0c35.093,0 63.625,28.532 63.625,63.626l0,190.876c0,35.094 -28.532,63.626 -63.625,63.626l-318.128,-0c-35.093,-0 -63.626,-28.532 -63.626,-63.626l0,-190.876c0,-35.094 28.533,-63.626 63.626,-63.626l15.906,0Zm63.626,-47.719l-0,47.719l159.064,0l-0,-47.719c-0,-43.941 -35.591,-79.532 -79.532,-79.532c-43.942,0 -79.532,35.591 -79.532,79.532Z" style="fill:#fff;fill-rule:nonzero;"/><path d="M0.018,1048.9c-0.012,0.304 -0.018,0.607 -0.018,0.911c-0,11.802 9.288,21.513 20.575,21.513c0.122,-0 0.244,-0.002 0.366,-0.004l71.621,0c11.98,0 21.53,-10.257 23.092,-22.692c7.814,-59.545 46.88,-102.933 116.505,-102.933c59.554,-0 114.073,31.134 114.073,106.019c-0,57.639 -32.468,84.144 -83.775,124.446c-58.426,44.386 -104.698,96.216 -101.399,180.359l0.261,19.697c0.188,12.312 9.927,22.331 21.703,22.33l70.406,-0c11.906,-0 21.703,-10.244 21.703,-22.693l0,-9.53c0,-65.173 23.701,-84.144 87.682,-134.885c52.87,-42.026 107.997,-88.682 107.997,-186.623c-0,-137.153 -110.775,-203.415 -232.054,-203.415c-109.993,-0 -230.49,53.554 -238.738,207.5Zm135.17,523.107c-0,48.381 36.895,84.144 87.682,84.144c52.869,-0 89.244,-35.763 89.244,-84.144c0,-50.105 -36.462,-85.324 -89.331,-85.324c-50.7,0 -87.595,35.219 -87.595,85.324Z" style="fill:#fff;fill-rule:nonzero;stroke:#fff;stroke-width:4.17px;"/></g></g></svg>