<?xml version="1.0" encoding="UTF-8" standalone="no"?><!DOCTYPE svg PUBLIC "-//W3C//DTD SVG 1.1//EN" "http://www.w3.org/Graphics/SVG/1.1/DTD/svg11.dtd"><svg width="100%" height="100%" viewBox="0 0 1667 2500" version="1.1" xmlns="http://www.w3.org/2000/svg" xmlns:xlink="http://www.w3.org/1999/xlink" xml:space="preserve" xmlns:serif="http://www.serif.com/" style="fill-rule:evenodd;clip-rule:evenodd;stroke-linecap:square;stroke-linejoin:round;stroke-miterlimit:1.5;"><rect id="Prancheta1" x="0" y="0" width="1666.67" height="2500" style="fill:none;"/><g><path d="M292.343,751.391l0,-75.738c0,-41.476 36.605,-74.837 82.113,-74.837l54.908,0c45.508,0 82.113,33.361 82.113,74.837l-0,76.639c76.672,3.607 150.871,27.5 212.703,69.427c27.701,18.484 30.669,55.451 5.936,77.091l-80.629,69.877c-18.797,16.68 -46.993,17.131 -69.253,4.508c-26.711,-15.328 -56.391,-22.992 -88.049,-22.992l-192.422,0c-44.519,0 -80.629,36.968 -80.629,82.501c-0,36.967 24.733,69.877 59.853,79.344l308.173,84.304c127.127,34.713 216.165,146.067 216.165,270.944c0,153.28 -130.589,277.256 -292.343,281.313l0,75.738c0,41.476 -36.605,74.837 -82.113,74.837l-54.907,-0c-45.509,-0 -82.114,-33.361 -82.114,-74.837l0,-76.639c-76.672,-3.607 -150.87,-27.5 -212.703,-69.427c-27.701,-18.484 -30.668,-55.451 -5.936,-77.091l80.63,-69.877c18.797,-16.68 46.992,-17.131 69.252,-4.508c26.712,15.328 56.391,22.992 88.049,22.992l192.422,-0c44.52,-0 80.63,-36.968 80.63,-82.501c-0,-36.967 -24.733,-69.877 -59.854,-79.344l-308.172,-84.304c-127.127,-34.713 -216.166,-146.067 -216.166,-270.944c0.494,-153.158 130.384,-277.059 292.343,-281.313Z" style="fill:#fff;"/><path d="M1261.67,946.25l405,303.75l-405,303.75l-0,-607.5Z" style="fill:#fff;"/><path d="M882.991,1250l459.676,0" style="fill:none;stroke:#fff;stroke-width:150px;"/></g></svg>