<?xml version="1.0" encoding="UTF-8" standalone="no"?><!DOCTYPE svg PUBLIC "-//W3C//DTD SVG 1.1//EN" "http://www.w3.org/Graphics/SVG/1.1/DTD/svg11.dtd"><svg width="100%" height="100%" viewBox="0 0 1667 2500" version="1.1" xmlns="http://www.w3.org/2000/svg" xmlns:xlink="http://www.w3.org/1999/xlink" xml:space="preserve" xmlns:serif="http://www.serif.com/" style="fill-rule:evenodd;clip-rule:evenodd;stroke-linejoin:round;stroke-miterlimit:2;"><rect id="Prancheta1" x="0" y="0" width="1666.67" height="2500" style="fill:none;"/><path d="M208.333,437.5c-114.909,0 -208.333,93.424 -208.333,208.333l0,937.5c0,114.909 93.424,208.334 208.333,208.334l312.5,-0l0,260.416c0,19.857 11.068,37.761 28.646,46.55c17.578,8.789 38.737,6.836 54.688,-4.883l402.669,-302.083l451.497,-0c114.909,-0 208.334,-93.425 208.334,-208.334l-0,-937.5c-0,-114.909 -93.425,-208.333 -208.334,-208.333l-1250,-0Zm563.614,723.253l0.181,-0c10.487,5.243 18.805,13.199 24.41,22.963l73.41,-0c5.43,-9.283 13.405,-17.209 23.433,-22.463l0.977,-0.5l0.181,-0l1.446,-0.724c0.904,-0.361 2.17,-1.085 3.797,-1.808c3.255,-1.446 7.594,-3.435 13.2,-5.786c11.029,-4.701 26.76,-10.668 45.926,-16.635c37.971,-11.933 91.13,-24.409 149.714,-24.409c54.967,-0 105.233,11.029 142.3,22.24l-67.986,-291.472c-4.701,-20.251 -22.782,-34.535 -43.395,-34.535c-5.605,-0 -11.21,1.085 -16.635,3.254l-56.594,22.602c-22.241,8.86 -47.554,-1.989 -56.414,-24.229c-8.86,-22.24 1.989,-47.554 24.229,-56.414l56.594,-22.601c15.55,-6.148 32.004,-9.403 48.82,-9.403c61.115,0 114.093,42.13 128.016,101.618l79.377,339.929c3.074,13.199 5.244,26.58 6.329,39.96c0.542,3.435 0.904,6.871 0.904,10.306l-0,115.721c-0,111.923 -90.588,202.511 -202.511,202.511l-80.282,-0c-107.403,-0 -196.182,-83.898 -202.149,-191.301l-2.351,-40.14l-67.262,-0l-2.17,40.14c-5.967,107.403 -94.746,191.301 -202.33,191.301l-80.101,-0c-111.923,-0 -202.511,-90.588 -202.511,-202.511l-0,-115.721c-0,-3.435 0.362,-6.871 0.904,-10.306c1.085,-13.38 3.255,-26.761 6.329,-39.96l79.377,-339.929c13.742,-59.488 66.72,-101.618 127.835,-101.618c16.635,0 33.27,3.255 48.819,9.403l56.595,22.601c22.24,8.86 33.089,34.174 24.229,56.414c-8.86,22.24 -34.174,33.089 -56.414,24.229l-56.594,-22.602c-5.244,-2.169 -10.849,-3.254 -16.635,-3.254c-20.794,-0 -38.694,14.284 -43.395,34.535l-67.986,291.472c37.066,-11.211 87.333,-22.24 142.3,-22.24c58.403,-0 111.743,12.476 149.714,24.409c19.166,5.967 34.897,12.115 45.926,16.635c5.605,2.351 9.945,4.34 13.2,5.786c1.627,0.723 2.893,1.266 3.797,1.808l1.446,0.724Zm-343.726,90.699l-0,76.915c-0,47.915 38.875,86.79 86.79,86.79l80.101,0c46.107,0 84.078,-35.982 86.609,-81.908l4.521,-82.451c-4.159,-1.447 -8.86,-3.074 -13.561,-4.521c-31.1,-9.764 -72.145,-18.985 -114.998,-18.985c-42.853,-0 -83.536,9.221 -114.274,18.985c-5.533,1.785 -10.538,3.394 -15.188,5.175Zm682.408,-24.334l-2.007,-0.007c-42.853,0 -83.898,9.222 -114.997,18.986c-4.882,1.446 -9.403,3.073 -13.561,4.52l4.52,82.451c2.531,45.927 40.683,81.908 86.61,81.908l80.281,0c47.915,0 86.79,-38.874 86.79,-86.79l0,-76.846c-4.701,-1.627 -9.945,-3.435 -15.369,-5.243c-30.259,-9.612 -70.154,-18.698 -112.267,-18.979Zm-682.408,24.334l-0,-0.112l-0.181,0.181l0.181,-0.069Z" style="fill:#fff;fill-rule:nonzero;"/></svg>