<?xml version="1.0" encoding="UTF-8" standalone="no"?><!DOCTYPE svg PUBLIC "-//W3C//DTD SVG 1.1//EN" "http://www.w3.org/Graphics/SVG/1.1/DTD/svg11.dtd"><svg width="100%" height="100%" viewBox="0 0 1667 2500" version="1.1" xmlns="http://www.w3.org/2000/svg" xmlns:xlink="http://www.w3.org/1999/xlink" xml:space="preserve" xmlns:serif="http://www.serif.com/" style="fill-rule:evenodd;clip-rule:evenodd;stroke-linejoin:round;stroke-miterlimit:2;"><rect id="Prancheta1" x="0" y="0" width="1666.67" height="2500" style="fill:none;"/><g><path d="M108.07,1400.62c-59.686,-0 -108.07,46.455 -108.07,103.761c0,57.306 48.384,103.761 108.07,103.761c59.687,0 108.071,-46.455 108.071,-103.761c-0,-57.306 -48.384,-103.761 -108.071,-103.761Zm737.488,25.94c13.385,0.001 24.233,15.485 24.233,34.587l0,86.468c0,19.103 -10.849,34.587 -24.233,34.587l-533.137,-0c-13.385,-0 -24.234,-15.484 -24.234,-34.587l0,-86.468c0,-19.102 10.849,-34.586 24.234,-34.587l533.137,0Zm-737.488,-371.81c-59.686,-0 -108.07,46.454 -108.07,103.761c-0,57.306 48.384,103.761 108.07,103.761c59.687,-0 108.071,-46.455 108.071,-103.761c-0,-57.307 -48.384,-103.761 -108.071,-103.761Zm737.536,25.94c13.386,0.001 24.235,15.485 24.235,34.587l0,86.468c0,19.102 -10.85,34.587 -24.235,34.587l-533.183,-0c-13.386,-0 -24.236,-15.485 -24.236,-34.587l0,-86.468c0,-19.102 10.85,-34.586 24.236,-34.587l533.183,-0Zm-629.465,-268.05c-0,57.307 -48.384,103.762 -108.071,103.762c-59.686,-0 -108.07,-46.455 -108.07,-103.762c-0,-57.306 48.384,-103.761 108.07,-103.761c59.687,0 108.071,46.455 108.071,103.761Zm900.585,-77.82c19.897,0 36.024,15.484 36.024,34.587l-0,86.467c-0,19.103 -16.127,34.587 -36.024,34.587l-792.515,0c-19.896,0 -36.024,-15.484 -36.024,-34.587l0,-86.467c0,-19.103 16.127,-34.587 36.024,-34.587l792.515,-0Z" style="fill:#fff;"/><path d="M1242.15,1118.39l0,-55.93c0,-30.628 28.62,-55.264 64.201,-55.264l42.929,0c35.581,0 64.2,24.636 64.2,55.264l0,56.596c59.947,2.663 117.959,20.308 166.303,51.269c21.658,13.649 23.978,40.948 4.641,56.928l-63.041,51.602c-14.696,12.318 -36.741,12.651 -54.144,3.329c-20.885,-11.319 -44.09,-16.979 -68.842,-16.979l-150.446,0c-34.807,0 -63.04,27.299 -63.04,60.924c0,27.299 19.338,51.601 46.797,58.593l240.945,62.255c99.395,25.634 169.01,107.864 169.01,200.081c-0,113.191 -102.102,204.743 -228.569,207.739l-0,55.93c-0,30.628 -28.62,55.264 -64.201,55.264l-42.929,-0c-35.581,-0 -64.201,-24.636 -64.201,-55.264l0,-56.596c-59.946,-2.663 -117.958,-20.307 -166.302,-51.269c-21.658,-13.649 -23.978,-40.948 -4.641,-56.928l63.04,-51.602c14.697,-12.318 36.741,-12.65 54.145,-3.329c20.885,11.319 44.09,16.979 68.842,16.979l150.445,-0c34.808,-0 63.041,-27.299 63.041,-60.924c-0,-27.299 -19.338,-51.601 -46.797,-58.593l-240.945,-62.255c-99.395,-25.634 -169.01,-107.864 -169.01,-200.081c0.386,-113.102 101.941,-204.598 228.569,-207.739Z" style="fill:none;stroke:#fff;stroke-width:50px;"/></g></svg>