<?xml version="1.0" encoding="UTF-8" standalone="no"?><!DOCTYPE svg PUBLIC "-//W3C//DTD SVG 1.1//EN" "http://www.w3.org/Graphics/SVG/1.1/DTD/svg11.dtd"><svg width="100%" height="100%" viewBox="0 0 1667 2500" version="1.1" xmlns="http://www.w3.org/2000/svg" xmlns:xlink="http://www.w3.org/1999/xlink" xml:space="preserve" xmlns:serif="http://www.serif.com/" style="fill-rule:evenodd;clip-rule:evenodd;stroke-linecap:round;stroke-linejoin:round;stroke-miterlimit:1.5;"><rect id="Prancheta1" x="0" y="0" width="1666.67" height="2500" style="fill:none;"/><g><path d="M1284.71,508.333c-19.201,0 -34.713,15.513 -34.713,34.714c-0,19.2 15.512,34.713 34.713,34.713l0,11.932c0,45.995 18.333,90.146 50.877,122.69l73.548,73.657l-73.548,73.657c-32.544,32.543 -50.877,76.694 -50.877,122.689l0,11.933c-19.201,-0 -34.713,15.512 -34.713,34.713c-0,19.201 15.512,34.713 34.713,34.713l347.132,0c19.201,0 34.713,-15.512 34.713,-34.713c0,-19.201 -15.512,-34.713 -34.713,-34.713l0,-11.933c0,-45.995 -18.333,-90.146 -50.877,-122.689l-73.548,-73.657l73.657,-73.657c32.544,-32.544 50.876,-76.695 50.876,-122.69l0,-11.932c19.201,-0 34.714,-15.513 34.714,-34.713c-0,-19.201 -15.513,-34.714 -34.714,-34.714l-347.24,0Zm69.427,81.359l-0,-11.932l208.279,-0l-0,11.932c-0,20.611 -6.075,40.571 -17.357,57.494l-173.566,0c-11.173,-16.923 -17.356,-36.883 -17.356,-57.494Zm17.356,335.2c3.797,-5.75 8.245,-11.174 13.126,-16.164l73.657,-73.548l73.657,73.657c4.99,4.99 9.329,10.414 13.235,16.163l-173.675,-0l0,-0.108Z" style="fill:#fff;fill-rule:nonzero;"/><g><path d="M1034.39,1993.07l-813.508,-1.158c-63.988,1.553 -61.918,-64.834 -61.918,-64.834l-2.716,-203.668l-126.953,-0c-16.18,-0.002 -29.297,-13.119 -29.297,-29.297l0,-322.266c0,-64.721 52.465,-117.186 117.188,-117.187l39.062,-0l0,-410.157c0,-32.36 26.232,-58.592 58.594,-58.593l808.056,4.997c36.666,2.797 63.887,27.581 65.793,58.89l5.057,404.863l39.062,-0c64.724,0.001 117.188,52.466 117.188,117.187l-0,322.266c-0,16.178 -13.116,29.295 -29.297,29.297l-126.953,-0l-0.984,196.688c0.869,35.504 -28.787,73.304 -58.374,72.972Zm-96.892,-347.785l-625,-0l2.144,204.637l302.827,-1.354l319.993,1.308l0.036,-204.591Zm117.187,-136.719c-32.358,-0 -58.593,-26.236 -58.593,-58.594c-0,-32.358 26.235,-58.594 58.593,-58.594c32.359,0 58.594,26.236 58.594,58.594c0,32.358 -26.235,58.594 -58.594,58.594Zm-125.323,-560.304l-624.937,2.444l-1.19,445.74l625.972,3.061l0.155,-451.245Z" style="fill:#fff;"/><path d="M616.045,1026.67l183.718,106.069l-0,212.14l-183.718,106.07l-183.719,-106.07l0,-212.14l183.719,-106.069Z" style="fill:none;"/><clipPath id="_clip1"><path d="M616.045,1026.67l183.718,106.069l-0,212.14l-183.718,106.07l-183.719,-106.07l0,-212.14l183.719,-106.069Z"/></clipPath><g clip-path="url(#_clip1)"><g transform="matrix(0.485177,0,0,1,937.136,0)"><text x="-878.417px" y="1318.64px" style="font-family:'Helvetica-Bold', 'Helvetica';font-weight:700;font-size:217.57px;fill:#fff;">NFT</text></g></g><path d="M616.045,1026.67l183.718,106.069l-0,212.14l-183.718,106.07l-183.719,-106.07l0,-212.14l183.719,-106.069Z" style="fill:none;stroke:#fff;stroke-width:100px;"/></g></g></svg>