<?xml version="1.0" encoding="UTF-8" standalone="no"?><!DOCTYPE svg PUBLIC "-//W3C//DTD SVG 1.1//EN" "http://www.w3.org/Graphics/SVG/1.1/DTD/svg11.dtd"><svg width="100%" height="100%" viewBox="0 0 1667 2500" version="1.1" xmlns="http://www.w3.org/2000/svg" xmlns:xlink="http://www.w3.org/1999/xlink" xml:space="preserve" xmlns:serif="http://www.serif.com/" style="fill-rule:evenodd;clip-rule:evenodd;stroke-linecap:round;stroke-linejoin:round;stroke-miterlimit:1.5;"><rect id="Prancheta1" x="0" y="0" width="1666.67" height="2500" style="fill:none;"/><g><g><path d="M64.556,1673.82l290.692,-2.98" style="fill:none;"/><path d="M65.197,1736.31l290.692,-2.98c34.493,-0.354 62.209,-28.645 61.856,-63.138c-0.354,-34.493 -28.645,-62.209 -63.138,-61.856l-290.692,2.98c-34.492,0.354 -62.209,28.645 -61.856,63.138c0.354,34.492 28.645,62.209 63.138,61.856Z" style="fill:#fff;"/><path d="M68.526,1237.41l348.1,-3.569" style="fill:none;"/><path d="M69.167,1299.91l348.099,-3.568c34.493,-0.353 62.21,-28.644 61.856,-63.137c-0.353,-34.493 -28.644,-62.21 -63.137,-61.856l-348.099,3.568c-34.493,0.354 -62.21,28.645 -61.856,63.137c0.353,34.493 28.644,62.21 63.137,61.856Z" style="fill:#fff;"/><path d="M329.202,801.888l266.357,-2.73" style="fill:none;"/><path d="M329.842,864.385l266.358,-2.73c34.493,-0.354 62.209,-28.645 61.856,-63.138c-0.354,-34.493 -28.645,-62.209 -63.138,-61.856l-266.357,2.731c-34.493,0.353 -62.21,28.644 -61.856,63.137c0.353,34.493 28.644,62.21 63.137,61.856Z" style="fill:#fff;"/></g><path d="M1252.13,752.804l339.824,248.394l-180.816,496.789l-520.64,248.394l-339.823,-248.394l180.816,-496.789l520.639,-248.394Z" style="fill:none;"/><clipPath id="_clip1"><path d="M1252.13,752.804l339.824,248.394l-180.816,496.789l-520.64,248.394l-339.823,-248.394l180.816,-496.789l520.639,-248.394Z"/></clipPath><g clip-path="url(#_clip1)"><g transform="matrix(0.485177,0,-0.36397,1,1187.74,9.09495e-13)"><text x="190.193px" y="1436.54px" style="font-family:'Helvetica-Bold', 'Helvetica';font-weight:700;font-size:509.505px;fill:#fff;">NFT</text></g></g><path d="M1252.13,752.804l339.824,248.394l-180.816,496.789l-520.64,248.394l-339.823,-248.394l180.816,-496.789l520.639,-248.394Z" style="fill:none;stroke:#fff;stroke-width:133.33px;"/></g></svg>