<?xml version="1.0" encoding="UTF-8" standalone="no"?><!DOCTYPE svg PUBLIC "-//W3C//DTD SVG 1.1//EN" "http://www.w3.org/Graphics/SVG/1.1/DTD/svg11.dtd"><svg width="100%" height="100%" viewBox="0 0 1667 2500" version="1.1" xmlns="http://www.w3.org/2000/svg" xmlns:xlink="http://www.w3.org/1999/xlink" xml:space="preserve" xmlns:serif="http://www.serif.com/" style="fill-rule:evenodd;clip-rule:evenodd;stroke-linejoin:round;stroke-miterlimit:2;"><rect id="Prancheta1" x="0" y="0" width="1666.67" height="2500" style="fill:none;"/><clipPath id="_clip1"><rect x="0" y="0" width="1666.67" height="2500"/></clipPath><g clip-path="url(#_clip1)"><g><path d="M1206.28,725c-36.38,0 -65.773,29.392 -65.773,65.773l0,39.464c-150.044,30.42 -263.091,163.199 -263.091,322.287l-0,38.642c-0,96.604 -35.559,189.919 -99.687,262.269l-15.21,17.06c-17.266,19.321 -21.377,47.069 -10.894,70.706c10.482,23.637 34.12,38.847 60.018,38.847l789.275,0c25.898,0 49.33,-15.21 60.018,-38.847c10.688,-23.637 6.372,-51.385 -10.894,-70.706l-15.21,-17.06c-64.128,-72.35 -99.687,-165.46 -99.687,-262.269l0,-38.642c0,-159.088 -113.047,-291.867 -263.092,-322.287l0,-39.464c0,-36.381 -29.392,-65.773 -65.773,-65.773Zm93.11,1013.93c24.665,-24.665 38.436,-58.168 38.436,-93.11l-263.092,0c0,34.942 13.772,68.445 38.437,93.11c24.664,24.665 58.168,38.436 93.109,38.436c34.942,0 68.445,-13.771 93.11,-38.436Z" style="fill:#fff;fill-rule:nonzero;"/><path d="M532.669,1228.68c-17.187,17.187 -45.098,17.187 -62.284,0c-17.187,-17.186 -17.187,-45.097 -0,-62.284l78.92,-78.783l-509.684,0c-24.336,0 -43.997,-19.661 -43.997,-43.997c-0,-24.336 19.661,-43.998 43.997,-43.998l509.684,0l-78.783,-78.92c-17.186,-17.187 -17.186,-45.098 0,-62.284c17.187,-17.187 45.098,-17.187 62.284,-0l153.992,153.991c17.186,17.187 17.186,45.098 -0,62.284l-153.992,153.991l-0.137,0Zm-370.129,308.121l-154.129,-154.129c-17.187,-17.187 -17.187,-45.098 -0,-62.284l153.991,-153.992c17.187,-17.186 45.098,-17.186 62.284,0c17.187,17.187 17.187,45.098 0,62.284l-78.783,78.921l509.684,-0c24.336,-0 43.997,19.661 43.997,43.998c0,24.336 -19.661,43.997 -43.997,43.997l-509.684,0l78.921,78.921c17.186,17.186 17.186,45.097 -0,62.284c-17.187,17.186 -45.098,17.186 -62.284,-0Z" style="fill:#fff;fill-rule:nonzero;"/></g></g></svg>