<?xml version="1.0" encoding="UTF-8" standalone="no"?><!DOCTYPE svg PUBLIC "-//W3C//DTD SVG 1.1//EN" "http://www.w3.org/Graphics/SVG/1.1/DTD/svg11.dtd"><svg width="100%" height="100%" viewBox="0 0 1667 2500" version="1.1" xmlns="http://www.w3.org/2000/svg" xmlns:xlink="http://www.w3.org/1999/xlink" xml:space="preserve" xmlns:serif="http://www.serif.com/" style="fill-rule:evenodd;clip-rule:evenodd;stroke-linejoin:round;stroke-miterlimit:2;"><rect id="Prancheta1" x="0" y="0" width="1666.67" height="2500" style="fill:none;"/><clipPath id="_clip1"><rect x="0" y="0" width="1666.67" height="2500"/></clipPath><g clip-path="url(#_clip1)"><g><path d="M89.61,1200c-49.491,0 -89.61,41.939 -89.61,93.674c0,51.735 40.119,93.674 89.61,93.674c49.49,-0 89.609,-41.939 89.609,-93.674c0,-51.735 -40.119,-93.674 -89.609,-93.674Zm570.233,23.419c10.107,0.001 18.299,13.979 18.299,31.224l-0,78.062c-0,17.245 -8.192,31.224 -18.299,31.224l-402.585,0c-10.107,0 -18.299,-13.979 -18.299,-31.224l-0,-78.062c-0,-17.245 8.192,-31.223 18.299,-31.224l402.585,-0Zm-570.233,-335.665c-49.491,0 -89.61,41.939 -89.61,93.674c-0,51.735 40.119,93.674 89.61,93.674c49.49,-0 89.609,-41.939 89.609,-93.674c0,-51.735 -40.119,-93.674 -89.609,-93.674Zm570.457,23.419c10.113,0.001 18.309,13.979 18.309,31.224l0,78.062c0,17.245 -8.197,31.224 -18.309,31.224l-402.799,0c-10.112,0 -18.309,-13.979 -18.309,-31.224l-0,-78.062c-0,-17.245 8.196,-31.223 18.309,-31.224l402.799,-0Zm-480.848,-241.991c0,51.735 -40.119,93.674 -89.609,93.674c-49.491,-0 -89.61,-41.939 -89.61,-93.674c0,-51.735 40.119,-93.673 89.61,-93.673c49.49,-0 89.609,41.938 89.609,93.673Zm746.747,-70.255c16.498,0.001 29.87,13.979 29.87,31.225l-0,78.061c-0,17.246 -13.373,31.225 -29.87,31.225l-657.137,-0c-16.498,-0 -29.87,-13.979 -29.87,-31.225l-0,-78.061c-0,-17.246 13.372,-31.224 29.87,-31.225l657.137,-0Z" style="fill:#fff;"/><path d="M1058.78,1054.61l-0,95.982l319.94,0l0,-95.982c0,-88.383 -71.586,-159.97 -159.97,-159.97c-88.384,-0 -159.97,71.587 -159.97,159.97Zm-127.976,95.982l-0,-95.982c-0,-158.97 128.976,-287.946 287.946,-287.946c158.97,-0 287.946,128.976 287.946,287.946l0,95.982l31.994,0c70.587,0 127.977,57.39 127.977,127.976l-0,383.929c-0,70.587 -57.39,127.976 -127.977,127.976l-639.88,0c-70.587,0 -127.977,-57.389 -127.977,-127.976l0,-383.929c0,-70.586 57.39,-127.976 127.977,-127.976l31.994,0Z" style="fill:#fff;fill-rule:nonzero;"/></g></g></svg>