<?xml version="1.0" encoding="UTF-8" standalone="no"?><!DOCTYPE svg PUBLIC "-//W3C//DTD SVG 1.1//EN" "http://www.w3.org/Graphics/SVG/1.1/DTD/svg11.dtd"><svg width="100%" height="100%" viewBox="0 0 1667 2500" version="1.1" xmlns="http://www.w3.org/2000/svg" xmlns:xlink="http://www.w3.org/1999/xlink" xml:space="preserve" xmlns:serif="http://www.serif.com/" style="fill-rule:evenodd;clip-rule:evenodd;stroke-linejoin:round;stroke-miterlimit:2;"><rect id="Prancheta1" x="0" y="0" width="1666.67" height="2500" style="fill:none;"/><clipPath id="_clip1"><rect x="0" y="0" width="1666.67" height="2500"/></clipPath><g clip-path="url(#_clip1)"><path d="M208.333,416.703c-114.909,-0 -208.333,93.424 -208.333,208.333l-0,937.5c-0,114.909 93.424,208.333 208.333,208.333l312.5,0l0,260.417c0,19.857 11.068,37.76 28.646,46.549c17.578,8.789 38.737,6.836 54.688,-4.882l402.669,-302.084l451.497,0c114.909,0 208.334,-93.424 208.334,-208.333l-0,-937.5c-0,-114.909 -93.425,-208.333 -208.334,-208.333l-1250,-0Zm1058.48,226.649c18.085,12.534 27.575,34.2 24.173,55.866l-114.598,744.886c-2.686,17.368 -13.25,32.588 -28.649,41.183c-15.399,8.595 -33.842,9.67 -50.137,2.865l-226.151,-94.006l-71.803,133.399c-9.311,17.369 -29.187,26.143 -48.346,21.308c-19.159,-4.834 -32.589,-22.024 -32.589,-41.72l0,-171.897c0,-9.49 3.223,-18.801 9.132,-26.322l295.985,-380.679c4.476,-12.714 -11.639,-25.606 -23.278,-15.041l-320.515,289.896l-57.299,51.748c-16.474,14.862 -39.931,18.981 -60.522,10.386l-152.201,-63.387c-20.054,-8.416 -33.663,-27.396 -34.916,-49.241c-1.253,-21.846 9.848,-42.437 28.828,-53.36l802.185,-458.391c19.159,-10.923 42.795,-9.849 60.88,2.507l-0.179,-0Z" style="fill:#fff;fill-rule:nonzero;"/></g></svg>