<?xml version="1.0" encoding="UTF-8" standalone="no"?><!DOCTYPE svg PUBLIC "-//W3C//DTD SVG 1.1//EN" "http://www.w3.org/Graphics/SVG/1.1/DTD/svg11.dtd"><svg width="100%" height="100%" viewBox="0 0 1667 2500" version="1.1" xmlns="http://www.w3.org/2000/svg" xmlns:xlink="http://www.w3.org/1999/xlink" xml:space="preserve" xmlns:serif="http://www.serif.com/" style="fill-rule:evenodd;clip-rule:evenodd;stroke-linejoin:round;stroke-miterlimit:2;"><rect id="Prancheta1" x="0" y="0" width="1666.67" height="2500" style="fill:none;"/><g><g><g><path d="M1053.61,1016.78c122.001,-0 220.902,98.901 220.902,220.902c0,122.001 -98.901,220.902 -220.902,220.902c-122.001,0 -220.902,-98.901 -220.902,-220.902c-0,-122.001 98.901,-220.902 220.902,-220.902Z" style="fill:#fff;"/><path d="M1292.32,1474.08l-84.115,-21.03c-103.441,74.402 -228.826,57.799 -309.181,0l-84.116,21.03c-67.434,16.858 -114.739,77.444 -114.739,146.953l0,127.879c0,41.828 33.91,75.738 75.738,75.738l555.412,-0c41.828,-0 75.738,-33.91 75.738,-75.738l-0,-127.879c-0,-69.454 -47.23,-129.999 -114.737,-146.953Z" style="fill:#fff;"/></g><g><path d="M1463.13,966.199l0,-29.992c0,-16.423 14.581,-29.634 32.708,-29.634l21.871,-0c18.127,-0 32.707,13.211 32.707,29.634l0,30.349c30.54,1.428 60.095,10.89 84.724,27.492c11.034,7.32 12.216,21.958 2.365,30.527l-32.117,27.671c-7.487,6.605 -18.718,6.784 -27.584,1.785c-10.64,-6.069 -22.462,-9.104 -35.072,-9.104l-76.646,-0c-17.733,-0 -32.117,14.638 -32.117,32.669c0,14.639 9.852,27.671 23.841,31.42l122.752,33.383c50.638,13.746 86.104,57.841 86.104,107.291c-0,60.697 -52.017,109.791 -116.447,111.397l0,29.992c0,16.424 -14.58,29.634 -32.707,29.634l-21.871,0c-18.127,0 -32.708,-13.21 -32.708,-29.634l0,-30.349c-30.54,-1.428 -60.095,-10.89 -84.724,-27.492c-11.034,-7.319 -12.216,-21.958 -2.364,-30.527l32.116,-27.671c7.487,-6.605 18.718,-6.784 27.585,-1.785c10.64,6.07 22.461,9.105 35.072,9.105l76.646,-0c17.733,-0 32.116,-14.639 32.116,-32.67c-0,-14.639 -9.852,-27.671 -23.841,-31.419l-122.752,-33.384c-50.637,-13.746 -86.103,-57.841 -86.103,-107.291c0.197,-60.649 51.934,-109.713 116.446,-111.397Z" style="fill:#fff;"/></g></g><path d="M89.61,1299.84c-49.491,-0 -89.61,41.938 -89.61,93.673c0,51.736 40.119,93.674 89.61,93.674c49.49,0 89.609,-41.938 89.609,-93.674c0,-51.735 -40.119,-93.673 -89.609,-93.673Zm492.852,163.929l-328.568,-0c-8.249,-0 -14.935,-13.979 -14.935,-31.225l-0,-78.061c-0,-17.245 6.686,-31.224 14.935,-31.225l328.568,0c8.25,0.001 14.935,13.98 14.935,31.225l0,78.061c0,17.245 -6.685,31.224 -14.935,31.225Zm-492.852,-476.175c-49.491,-0 -89.61,41.938 -89.61,93.674c0,51.735 40.119,93.673 89.61,93.673c49.49,0 89.609,-41.938 89.609,-93.673c0,-51.736 -40.119,-93.674 -89.609,-93.674Zm570.457,163.929l-402.799,0c-10.112,0 -18.309,-13.979 -18.309,-31.225l-0,-78.061c-0,-17.245 8.196,-31.223 18.309,-31.225l402.799,0c10.113,0.002 18.309,13.98 18.309,31.225l0,78.061c0,17.245 -8.196,31.224 -18.309,31.225Zm-480.848,-382.501c0,51.735 -40.119,93.674 -89.609,93.674c-49.491,-0 -89.61,-41.939 -89.61,-93.674c0,-51.735 40.119,-93.674 89.61,-93.674c49.49,0 89.609,41.939 89.609,93.674Zm746.747,70.255l-657.137,0c-16.498,0 -29.87,-13.979 -29.87,-31.224l-0,-78.062c-0,-17.245 13.372,-31.224 29.87,-31.224l657.137,-0c16.498,0 29.87,13.979 29.87,31.224l-0,78.062c-0,17.245 -13.372,31.224 -29.87,31.224Z" style="fill:#fff;"/></g></svg>