<?xml version="1.0" encoding="UTF-8" standalone="no"?><!DOCTYPE svg PUBLIC "-//W3C//DTD SVG 1.1//EN" "http://www.w3.org/Graphics/SVG/1.1/DTD/svg11.dtd"><svg width="100%" height="100%" viewBox="0 0 1667 2500" version="1.1" xmlns="http://www.w3.org/2000/svg" xmlns:xlink="http://www.w3.org/1999/xlink" xml:space="preserve" xmlns:serif="http://www.serif.com/" style="fill-rule:evenodd;clip-rule:evenodd;stroke-linejoin:round;stroke-miterlimit:2;"><rect id="Prancheta1" x="0" y="0" width="1666.67" height="2500" style="fill:none;"/><clipPath id="_clip1"><rect x="0" y="0" width="1666.67" height="2500"/></clipPath><g clip-path="url(#_clip1)"><g><path d="M89.61,1200c-49.491,0 -89.61,41.939 -89.61,93.674c0,51.735 40.119,93.674 89.61,93.674c49.49,-0 89.609,-41.939 89.609,-93.674c0,-51.735 -40.119,-93.674 -89.609,-93.674Zm570.233,23.419c10.107,0.001 18.299,13.979 18.299,31.224l-0,78.062c-0,17.245 -8.192,31.224 -18.299,31.224l-402.585,0c-10.107,0 -18.299,-13.979 -18.299,-31.224l-0,-78.062c-0,-17.245 8.192,-31.223 18.299,-31.224l402.585,-0Zm-570.233,-335.665c-49.491,0 -89.61,41.939 -89.61,93.674c-0,51.735 40.119,93.674 89.61,93.674c49.49,-0 89.609,-41.939 89.609,-93.674c0,-51.735 -40.119,-93.674 -89.609,-93.674Zm570.457,23.419c10.113,0.001 18.309,13.979 18.309,31.224l0,78.062c0,17.245 -8.197,31.224 -18.309,31.224l-402.799,0c-10.112,0 -18.309,-13.979 -18.309,-31.224l-0,-78.062c-0,-17.245 8.196,-31.223 18.309,-31.224l402.799,-0Zm-480.848,-241.991c0,51.735 -40.119,93.674 -89.609,93.674c-49.491,-0 -89.61,-41.939 -89.61,-93.674c0,-51.735 40.119,-93.673 89.61,-93.673c49.49,-0 89.609,41.938 89.609,93.673Zm746.747,-70.255c16.498,0.001 29.87,13.979 29.87,31.225l-0,78.061c-0,17.246 -13.373,31.225 -29.87,31.225l-657.137,-0c-16.498,-0 -29.87,-13.979 -29.87,-31.225l-0,-78.061c-0,-17.246 13.372,-31.224 29.87,-31.225l657.137,-0Z" style="fill:#fff;"/><path d="M1156.29,762.5c-40.332,0 -72.917,32.585 -72.917,72.917l0,43.75c-166.341,33.724 -291.666,180.924 -291.666,357.291l-0,42.839c-0,107.096 -39.421,210.547 -110.515,290.755l-16.861,18.913c-19.141,21.419 -23.698,52.181 -12.077,78.385c11.621,26.205 37.825,43.067 66.536,43.067l875,-0c28.711,-0 54.688,-16.862 66.537,-43.067c11.849,-26.204 7.063,-56.966 -12.077,-78.385l-16.862,-18.913c-71.094,-80.208 -110.515,-183.431 -110.515,-290.755l0,-42.839c0,-176.367 -125.325,-323.567 -291.666,-357.291l-0,-43.75c-0,-40.332 -32.585,-72.917 -72.917,-72.917Zm103.223,1124.06c27.344,-27.344 42.61,-64.486 42.61,-103.223l-291.666,0c-0,38.737 15.267,75.879 42.61,103.223c27.344,27.344 64.486,42.611 103.223,42.611c38.737,-0 75.879,-15.267 103.223,-42.611Z" style="fill:#fff;fill-rule:nonzero;"/></g></g></svg>