<?xml version="1.0" encoding="UTF-8" standalone="no"?><!DOCTYPE svg PUBLIC "-//W3C//DTD SVG 1.1//EN" "http://www.w3.org/Graphics/SVG/1.1/DTD/svg11.dtd"><svg width="100%" height="100%" viewBox="0 0 1667 2500" version="1.1" xmlns="http://www.w3.org/2000/svg" xmlns:xlink="http://www.w3.org/1999/xlink" xml:space="preserve" xmlns:serif="http://www.serif.com/" style="fill-rule:evenodd;clip-rule:evenodd;stroke-linejoin:round;stroke-miterlimit:2;"><rect id="Prancheta1" x="0" y="0" width="1666.67" height="2500" style="fill:none;"/><clipPath id="_clip1"><rect x="0" y="0" width="1666.67" height="2500"/></clipPath><g clip-path="url(#_clip1)"><g><path d="M188.616,519.42l-188.616,377.604l773.81,-0l-0,-476.191l-425.224,0c-67.708,0 -129.464,38.319 -159.97,98.587Zm704.241,377.604l773.81,-0l-188.616,-377.604c-30.506,-60.268 -92.262,-98.587 -159.971,-98.587l-425.223,0l0,476.191Z" style="fill:#fff;fill-rule:nonzero;"/><path d="M1666.67,1016.67l-1666.67,-0l-0,810.535c-0,141.363 114.768,256.131 256.131,256.131l1154.4,0c141.362,0 256.131,-114.768 256.131,-256.131l-0,-810.535Zm-1145.83,116.666c-57.454,0 -104.166,46.713 -104.166,104.167l-0,468.75c-0,57.454 46.712,104.167 104.166,104.167l156.25,-0l0,130.208c0,9.928 5.534,18.88 14.323,23.275c8.789,4.394 19.369,3.418 27.344,-2.442l201.335,-151.041l225.748,-0c57.455,-0 104.167,-46.713 104.167,-104.167l0,-468.75c0,-57.454 -46.712,-104.167 -104.167,-104.167l-625,0Z" style="fill:#fff;"/></g></g></svg>