<?xml version="1.0" encoding="UTF-8" standalone="no"?><!DOCTYPE svg PUBLIC "-//W3C//DTD SVG 1.1//EN" "http://www.w3.org/Graphics/SVG/1.1/DTD/svg11.dtd"><svg width="100%" height="100%" viewBox="0 0 1667 2500" version="1.1" xmlns="http://www.w3.org/2000/svg" xmlns:xlink="http://www.w3.org/1999/xlink" xml:space="preserve" xmlns:serif="http://www.serif.com/" style="fill-rule:evenodd;clip-rule:evenodd;stroke-linejoin:round;stroke-miterlimit:2;"><rect id="Prancheta1" x="0" y="0" width="1666.67" height="2500" style="fill:none;"/><g><path d="M89.61,1125c-49.491,0 -89.61,41.939 -89.61,93.674c0,51.735 40.119,93.674 89.61,93.674c49.49,-0 89.609,-41.939 89.609,-93.674c0,-51.735 -40.119,-93.674 -89.609,-93.674Zm570.233,23.419c10.107,0.001 18.299,13.979 18.299,31.224l-0,78.062c-0,17.245 -8.192,31.224 -18.299,31.224l-402.585,0c-10.107,0 -18.299,-13.979 -18.299,-31.224l-0,-78.062c-0,-17.245 8.192,-31.223 18.299,-31.224l402.585,-0Zm-570.233,-335.665c-49.491,0 -89.61,41.939 -89.61,93.674c-0,51.735 40.119,93.674 89.61,93.674c49.49,-0 89.609,-41.939 89.609,-93.674c0,-51.735 -40.119,-93.674 -89.609,-93.674Zm570.457,23.419c10.113,0.001 18.309,13.979 18.309,31.224l0,78.062c0,17.245 -8.197,31.224 -18.309,31.224l-402.799,0c-10.112,0 -18.309,-13.979 -18.309,-31.224l-0,-78.062c-0,-17.245 8.196,-31.223 18.309,-31.224l402.799,-0Zm-480.848,-241.991c0,51.735 -40.119,93.674 -89.609,93.674c-49.491,-0 -89.61,-41.939 -89.61,-93.674c0,-51.735 40.119,-93.673 89.61,-93.673c49.49,-0 89.609,41.938 89.609,93.673Zm746.747,-70.255c16.498,0.001 29.87,13.979 29.87,31.225l-0,78.061c-0,17.246 -13.373,31.225 -29.87,31.225l-657.137,-0c-16.498,-0 -29.87,-13.979 -29.87,-31.225l-0,-78.061c-0,-17.246 13.372,-31.224 29.87,-31.225l657.137,-0Z" style="fill:#fff;"/><g><path d="M1159.17,1044.06l-0,-52.008c-0,-28.48 23.391,-51.389 52.472,-51.389l35.086,0c29.081,0 52.472,22.909 52.472,51.389l0,52.627c48.995,2.477 96.409,18.884 135.921,47.674c17.702,12.693 19.598,38.078 3.793,52.937l-51.523,47.984c-12.012,11.454 -30.029,11.764 -44.254,3.096c-17.069,-10.526 -36.034,-15.789 -56.265,-15.789l-122.961,0c-28.448,0 -51.523,25.385 -51.523,56.652c-0,25.385 15.804,47.984 38.247,54.485l196.928,57.889c81.236,23.837 138.134,100.302 138.134,186.053c-0,105.254 -83.45,190.386 -186.813,193.173l0,52.008c0,28.48 -23.391,51.388 -52.472,51.388l-35.086,0c-29.081,0 -52.472,-22.908 -52.472,-51.388l-0,-52.628c-48.995,-2.476 -96.409,-18.883 -135.921,-47.674c-17.702,-12.692 -19.598,-38.077 -3.794,-52.936l51.524,-47.984c12.012,-11.454 30.029,-11.764 44.253,-3.096c17.07,10.526 36.035,15.789 56.265,15.789l122.962,-0c28.448,-0 51.523,-25.385 51.523,-56.652c0,-25.385 -15.805,-47.984 -38.247,-54.485l-196.928,-57.89c-81.236,-23.837 -138.134,-100.301 -138.134,-186.052c0.316,-105.171 83.318,-190.252 186.813,-193.173Z" style="fill:#fff;"/><path d="M1604.91,771.441c32.163,0.002 58.272,28.434 58.272,63.454l0,1101.14c0,35.021 -26.111,63.453 -58.272,63.453l-754.411,0c-32.162,0 -58.272,-28.432 -58.272,-63.453l-0,-1101.14c-0,-35.02 26.109,-63.452 58.272,-63.454l754.411,0Zm-40.789,113.915l-668.999,0.059l0.255,1006.44l670.407,0l-1.663,-1006.5Z" style="fill:#fff;"/></g></g></svg>