<?xml version="1.0" encoding="UTF-8" standalone="no"?><!DOCTYPE svg PUBLIC "-//W3C//DTD SVG 1.1//EN" "http://www.w3.org/Graphics/SVG/1.1/DTD/svg11.dtd"><svg width="100%" height="100%" viewBox="0 0 1667 2500" version="1.1" xmlns="http://www.w3.org/2000/svg" xmlns:xlink="http://www.w3.org/1999/xlink" xml:space="preserve" xmlns:serif="http://www.serif.com/" style="fill-rule:evenodd;clip-rule:evenodd;stroke-linecap:round;stroke-linejoin:round;stroke-miterlimit:1.5;"><rect id="Prancheta1" x="0" y="0" width="1666.67" height="2500" style="fill:none;"/><clipPath id="_clip1"><rect x="0" y="0" width="1666.67" height="2500"/></clipPath><g clip-path="url(#_clip1)"><g><path d="M1378.65,2042.32l-1084.14,8.151c-85.317,2.062 -82.558,-86.068 -82.558,-86.068l-3.621,-270.372l-169.271,-0c-21.573,-0.002 -39.062,-17.415 -39.062,-38.892l-0,-427.813c-0,-85.918 69.953,-155.567 156.25,-155.568l52.083,-0l0,-544.489c0,-42.958 34.976,-77.782 78.125,-77.784l1077.41,6.635c48.889,3.713 85.183,36.614 87.724,78.176l6.743,537.462l52.084,-0c86.298,0.002 156.25,69.651 156.25,155.568l-0,427.813c-0,21.476 -17.488,38.889 -39.063,38.892l-169.271,-0l-1.312,261.107c1.159,47.132 -38.922,87.623 -78.371,87.182Zm-128.65,-452.002l-835.644,5.424l7.869,257.102l412.186,-0.69l412.318,1.117l3.271,-262.953Zm156.25,-181.496c-43.145,0 -78.125,-34.828 -78.125,-77.784c-0,-42.956 34.98,-77.784 78.125,-77.784c43.145,0 78.125,34.828 78.125,77.784c-0,42.956 -34.98,77.784 -78.125,77.784Zm-160.665,-749.308l-838.502,-4.357l1.599,604.326l841.854,4.003l-4.951,-603.972Z" style="fill:#fff;"/><path d="M831.739,764.139l252.591,145.833l0,291.667l-252.591,145.833l-252.59,-145.833l-0,-291.667l252.59,-145.833Z" style="fill:none;"/><clipPath id="_clip2"><path d="M831.739,764.139l252.591,145.833l0,291.667l-252.591,145.833l-252.59,-145.833l-0,-291.667l252.59,-145.833Z"/></clipPath><g clip-path="url(#_clip2)"><g transform="matrix(0.485177,0,0,1,1280.6,0)"><text x="-1222.97px" y="1165.56px" style="font-family:'Helvetica-Bold', 'Helvetica';font-weight:700;font-size:299.133px;fill:#fff;">NFT</text></g></g><path d="M831.739,764.139l252.591,145.833l0,291.667l-252.591,145.833l-252.59,-145.833l-0,-291.667l252.59,-145.833Z" style="fill:none;stroke:#fff;stroke-width:125px;"/></g></g></svg>