<?xml version="1.0" encoding="UTF-8" standalone="no"?><!DOCTYPE svg PUBLIC "-//W3C//DTD SVG 1.1//EN" "http://www.w3.org/Graphics/SVG/1.1/DTD/svg11.dtd"><svg width="100%" height="100%" viewBox="0 0 1667 2500" version="1.1" xmlns="http://www.w3.org/2000/svg" xmlns:xlink="http://www.w3.org/1999/xlink" xml:space="preserve" xmlns:serif="http://www.serif.com/" style="fill-rule:evenodd;clip-rule:evenodd;stroke-linejoin:round;stroke-miterlimit:2;"><rect id="Prancheta1" x="0" y="0" width="1666.67" height="2500" style="fill:none;"/><clipPath id="_clip1"><rect x="0" y="0" width="1666.67" height="2500"/></clipPath><g clip-path="url(#_clip1)"><g><path d="M1116.53,1016.44c-0.015,0.355 -0.022,0.71 -0.022,1.065c0,13.79 10.853,25.138 24.043,25.138c0.142,-0 0.285,-0.002 0.427,-0.004l83.692,-0c13.999,-0 25.158,-11.986 26.984,-26.517c9.13,-69.58 54.78,-120.28 136.138,-120.28c69.591,-0 133.298,36.381 133.298,123.886c0,67.353 -37.94,98.324 -97.894,145.418c-68.272,51.867 -122.342,112.431 -118.487,210.756l0.305,23.016c0.22,14.386 11.6,26.095 25.361,26.093l82.271,-0c13.913,-0 25.361,-11.97 25.361,-26.517l0,-11.137c0,-76.156 27.694,-98.324 102.459,-157.616c61.779,-49.109 126.197,-103.627 126.197,-218.074c-0,-160.268 -129.443,-237.697 -271.161,-237.697c-128.53,0 -269.335,62.58 -278.972,242.47Zm157.949,611.265c-0,56.534 43.114,98.325 102.459,98.325c61.779,-0 104.284,-41.791 104.284,-98.325c0,-58.549 -42.606,-99.703 -104.386,-99.703c-59.243,0 -102.357,41.154 -102.357,99.703Z" style="fill:#fff;fill-rule:nonzero;stroke:#fff;stroke-width:4.17px;"/><path d="M332.43,796.995l0,-68.81c0,-37.683 37.972,-67.992 85.181,-67.992l56.958,-0c47.209,-0 85.181,30.309 85.181,67.992l-0,69.63c79.536,3.276 156.506,24.984 220.648,63.076c28.736,16.793 31.815,50.379 6.158,70.04l-83.641,63.486c-19.5,15.155 -48.748,15.564 -71.839,4.096c-27.71,-13.926 -58.498,-20.889 -91.339,-20.889l-199.61,-0c-46.182,-0 -83.641,33.586 -83.641,74.954c0,33.587 25.657,63.487 62.09,72.088l319.683,76.593c131.876,31.538 224.241,132.707 224.241,246.163c0,139.26 -135.468,251.896 -303.264,255.583l0,68.81c0,37.683 -37.972,67.992 -85.18,67.992l-56.958,0c-47.209,0 -85.181,-30.309 -85.181,-67.992l0,-69.63c-79.536,-3.276 -156.506,-24.984 -220.649,-63.076c-28.735,-16.793 -31.814,-50.379 -6.157,-70.04l83.641,-63.486c19.499,-15.155 48.748,-15.564 71.839,-4.096c27.709,13.926 58.498,20.889 91.338,20.889l199.61,0c46.183,0 83.642,-33.586 83.642,-74.954c-0,-33.587 -25.657,-63.487 -62.09,-72.088l-319.684,-76.593c-131.876,-31.538 -224.24,-132.707 -224.24,-246.163c0.512,-139.149 135.254,-251.718 303.263,-255.583Z" style="fill:none;stroke:#fff;stroke-width:50px;"/></g></g></svg>