<?xml version="1.0" encoding="UTF-8" standalone="no"?><!DOCTYPE svg PUBLIC "-//W3C//DTD SVG 1.1//EN" "http://www.w3.org/Graphics/SVG/1.1/DTD/svg11.dtd"><svg width="100%" height="100%" viewBox="0 0 1667 2500" version="1.1" xmlns="http://www.w3.org/2000/svg" xmlns:xlink="http://www.w3.org/1999/xlink" xml:space="preserve" xmlns:serif="http://www.serif.com/" style="fill-rule:evenodd;clip-rule:evenodd;stroke-linejoin:round;stroke-miterlimit:2;"><rect id="Prancheta1" x="0" y="0" width="1666.67" height="2500" style="fill:none;"/><g><g><path d="M1117.42,2139.96l-878.804,-1.252c-69.124,1.678 -66.888,-70.037 -66.888,-70.037l-2.934,-220.016l-137.143,0c-17.479,-0.001 -31.648,-14.171 -31.648,-31.648l0,-348.132c0,-69.916 56.676,-126.592 126.593,-126.594l42.198,0l0,-443.077c0,-34.957 28.337,-63.295 63.297,-63.296l872.914,5.398c39.609,3.022 69.015,29.795 71.074,63.616l5.463,437.359l42.198,0c69.918,0.002 126.593,56.678 126.593,126.594l0,348.132c0,17.477 -14.169,31.646 -31.648,31.648l-137.143,0l-1.063,212.476c0.939,38.354 -31.097,79.188 -63.059,78.829Zm-104.669,-375.7l-675.165,-0l2.315,221.062l327.134,-1.462l345.676,1.413l0.04,-221.013Zm126.593,-147.693c-34.955,0 -63.297,-28.341 -63.297,-63.297c0,-34.955 28.342,-63.296 63.297,-63.296c34.956,-0 63.297,28.341 63.297,63.296c-0,34.956 -28.341,63.297 -63.297,63.297Zm-135.383,-605.276l-675.096,2.64l-1.286,481.517l676.215,3.307l0.167,-487.464Z" style="fill:#fff;"/><path d="M601.526,1149.4l-0,-44.307c-0,-24.264 19.516,-43.781 43.78,-43.781l29.274,0c24.264,0 43.781,19.517 43.781,43.781l-0,44.835c40.879,2.11 80.439,16.088 113.406,40.615c14.77,10.813 16.352,32.44 3.165,45.099l-42.989,40.879c-10.022,9.759 -25.055,10.022 -36.923,2.638c-14.242,-8.967 -30.066,-13.451 -46.945,-13.451l-102.593,0c-23.737,0 -42.989,21.627 -42.989,48.264c-0,21.626 13.186,40.879 31.912,46.418l164.307,49.318c67.781,20.308 115.253,85.451 115.253,158.506c0,89.67 -69.626,162.198 -155.868,164.571l-0,44.308c-0,24.264 -19.517,43.78 -43.78,43.78l-29.275,0c-24.264,0 -43.78,-19.516 -43.78,-43.78l-0,-44.835c-40.879,-2.11 -80.44,-16.088 -113.407,-40.616c-14.769,-10.813 -16.352,-32.439 -3.165,-45.099l42.989,-40.879c10.022,-9.758 25.055,-10.022 36.923,-2.637c14.242,8.967 30.066,13.451 46.945,13.451l102.594,-0c23.736,-0 42.989,-21.627 42.989,-48.264c-0,-21.627 -13.187,-40.879 -31.912,-46.418l-164.308,-49.319c-67.78,-20.307 -115.253,-85.45 -115.253,-158.505c0.264,-89.599 69.517,-162.083 155.869,-164.572Z" style="fill:#fff;"/></g><path d="M1666.67,707.379l-0,-101.209c-0,-17.619 -14.175,-31.793 -31.794,-31.793l-182.547,-0l0,-182.548c0,-17.618 -14.174,-31.793 -31.793,-31.793l-101.209,0c-17.619,0 -31.794,14.175 -31.794,31.793l0,182.548l-182.547,-0c-17.619,-0 -31.793,14.174 -31.793,31.793l-0,101.209c-0,17.619 14.174,31.793 31.793,31.793l182.547,0l0,182.548c0,17.618 14.175,31.793 31.794,31.793l101.209,0c17.619,0 31.793,-14.175 31.793,-31.793l0,-182.548l182.547,0c17.619,0 31.794,-14.174 31.794,-31.793Z" style="fill:#fff;fill-rule:nonzero;"/></g></svg>