<?xml version="1.0" encoding="UTF-8" standalone="no"?><!DOCTYPE svg PUBLIC "-//W3C//DTD SVG 1.1//EN" "http://www.w3.org/Graphics/SVG/1.1/DTD/svg11.dtd"><svg width="100%" height="100%" viewBox="0 0 1667 2500" version="1.1" xmlns="http://www.w3.org/2000/svg" xmlns:xlink="http://www.w3.org/1999/xlink" xml:space="preserve" xmlns:serif="http://www.serif.com/" style="fill-rule:evenodd;clip-rule:evenodd;stroke-linecap:square;stroke-miterlimit:1.5;"><rect id="Prancheta1" x="0" y="0" width="1666.67" height="2500" style="fill:none;"/><g><g><path d="M948.245,1109.19l0,-44.998c0,-24.641 21.748,-44.462 48.786,-44.462l32.621,0c27.038,0 48.786,19.821 48.786,44.462l-0,45.534c45.552,2.142 89.636,16.338 126.372,41.248c16.457,10.981 18.221,32.944 3.526,45.801l-47.904,41.516c-11.167,9.91 -27.919,10.178 -41.144,2.678c-15.87,-9.106 -33.503,-13.66 -52.312,-13.66l-114.322,0c-26.45,0 -47.904,21.963 -47.904,49.016c-0,21.963 14.694,41.515 35.56,47.14l183.093,50.087c75.529,20.624 128.429,86.781 128.429,160.974c-0,91.067 -77.587,164.724 -173.688,167.135l-0,44.998c-0,24.641 -21.748,44.462 -48.786,44.462l-32.621,-0c-27.038,-0 -48.786,-19.821 -48.786,-44.462l0,-45.534c-45.552,-2.143 -89.635,-16.338 -126.371,-41.248c-16.458,-10.981 -18.222,-32.945 -3.527,-45.801l47.904,-41.516c11.167,-9.91 27.919,-10.178 41.144,-2.678c15.87,9.106 33.503,13.66 52.312,13.66l114.323,-0c26.449,-0 47.903,-21.964 47.903,-49.016c0,-21.963 -14.694,-41.516 -35.56,-47.14l-183.092,-50.087c-75.53,-20.624 -128.43,-86.782 -128.43,-160.974c0.294,-90.995 77.464,-164.608 173.688,-167.135Z" style="fill:#fff;"/><path d="M1466.67,1255.43l200,150l-200,150l-0,-300Z" style="fill:#fff;"/><path d="M1299.16,1405.43l207.504,0" style="fill:none;stroke:#fff;stroke-width:83.33px;"/></g><path d="M89.98,1327.06c-49.695,-0 -89.98,41.515 -89.98,92.727c0,51.213 40.285,92.727 89.98,92.727c49.696,0 89.981,-41.514 89.981,-92.727c-0,-51.212 -40.285,-92.727 -89.981,-92.727Zm614.039,23.182c11.145,0.001 20.177,13.838 20.177,30.909l-0,77.272c-0,17.072 -9.033,30.909 -20.177,30.909l-443.895,0c-11.144,0 -20.177,-13.837 -20.177,-30.909l0,-77.272c0,-17.071 9.033,-30.908 20.177,-30.909l443.895,-0Zm-614.039,-332.273c-49.695,0 -89.98,41.515 -89.98,92.727c-0,51.213 40.285,92.728 89.98,92.728c49.696,-0 89.981,-41.515 89.981,-92.728c-0,-51.212 -40.285,-92.727 -89.981,-92.727Zm614.079,23.182c11.145,0.001 20.179,13.838 20.179,30.909l-0,77.273c-0,17.071 -9.034,30.909 -20.179,30.909l-443.933,-0c-11.145,-0 -20.179,-13.838 -20.179,-30.909l0,-77.273c0,-17.071 9.034,-30.908 20.179,-30.909l443.933,-0Zm-524.098,-239.545c-0,51.212 -40.285,92.727 -89.981,92.727c-49.695,-0 -89.98,-41.515 -89.98,-92.727c-0,-51.213 40.285,-92.728 89.98,-92.728c49.696,0 89.981,41.515 89.981,92.728Zm749.835,-69.546c16.567,0.001 29.994,13.838 29.994,30.909l-0,77.273c-0,17.071 -13.428,30.909 -29.994,30.909l-659.855,-0c-16.566,-0 -29.994,-13.838 -29.994,-30.909l0,-77.273c0,-17.071 13.427,-30.908 29.994,-30.909l659.855,0Z" style="fill:#fff;"/></g></svg>