<?xml version="1.0" encoding="UTF-8" standalone="no"?><!DOCTYPE svg PUBLIC "-//W3C//DTD SVG 1.1//EN" "http://www.w3.org/Graphics/SVG/1.1/DTD/svg11.dtd"><svg width="100%" height="100%" viewBox="0 0 1667 2500" version="1.1" xmlns="http://www.w3.org/2000/svg" xmlns:xlink="http://www.w3.org/1999/xlink" xml:space="preserve" xmlns:serif="http://www.serif.com/" style="fill-rule:evenodd;clip-rule:evenodd;stroke-linejoin:round;stroke-miterlimit:2;"><rect id="Prancheta1" x="0" y="0" width="1666.67" height="2500" style="fill:none;"/><path d="M143.229,970.833c-79,0 -143.229,64.23 -143.229,143.229l0,644.532c0,79 64.229,143.229 143.229,143.229l214.844,-0l-0,179.036c-0,13.652 7.609,25.961 19.694,32.003c12.085,6.043 26.632,4.7 37.598,-3.357l276.835,-207.682l310.404,-0c79,-0 143.229,-64.229 143.229,-143.229l0,-644.532c0,-78.999 -64.229,-143.229 -143.229,-143.229l-859.375,0Z" style="fill:#fff;fill-rule:nonzero;"/><path d="M1284.71,712.5c-19.201,-0 -34.713,15.512 -34.713,34.713c0,19.201 15.512,34.713 34.713,34.713l0,11.933c0,45.995 18.333,90.146 50.877,122.689l73.548,73.657l-73.548,73.657c-32.544,32.544 -50.877,76.695 -50.877,122.69l0,11.933c-19.201,-0 -34.713,15.512 -34.713,34.713c0,19.2 15.512,34.713 34.713,34.713l347.132,-0c19.201,-0 34.713,-15.513 34.713,-34.713c0,-19.201 -15.512,-34.713 -34.713,-34.713l0,-11.933c0,-45.995 -18.333,-90.146 -50.877,-122.69l-73.548,-73.657l73.657,-73.657c32.544,-32.543 50.876,-76.694 50.876,-122.689l0,-11.933c19.201,0 34.714,-15.512 34.714,-34.713c-0,-19.201 -15.513,-34.713 -34.714,-34.713l-347.24,0Zm69.427,81.359l-0,-11.933l208.279,0l-0,11.933c-0,20.611 -6.075,40.571 -17.357,57.494l-173.566,-0c-11.173,-16.923 -17.356,-36.883 -17.356,-57.494Zm17.356,335.199c3.797,-5.749 8.245,-11.173 13.126,-16.163l73.657,-73.549l73.657,73.657c4.99,4.99 9.329,10.414 13.235,16.164l-173.675,-0l0,-0.109Z" style="fill:#fff;fill-rule:nonzero;"/></svg>