<?xml version="1.0" encoding="UTF-8" standalone="no"?><!DOCTYPE svg PUBLIC "-//W3C//DTD SVG 1.1//EN" "http://www.w3.org/Graphics/SVG/1.1/DTD/svg11.dtd"><svg width="100%" height="100%" viewBox="0 0 1667 2500" version="1.1" xmlns="http://www.w3.org/2000/svg" xmlns:xlink="http://www.w3.org/1999/xlink" xml:space="preserve" xmlns:serif="http://www.serif.com/" style="fill-rule:evenodd;clip-rule:evenodd;stroke-linecap:round;stroke-linejoin:round;stroke-miterlimit:1.5;"><rect id="Prancheta1" x="0" y="0" width="1666.67" height="2500" style="fill:none;"/><clipPath id="_clip1"><rect x="0" y="0" width="1666.67" height="2500"/></clipPath><g clip-path="url(#_clip1)"><g><path d="M1284.71,579.167c-19.201,-0 -34.713,15.512 -34.713,34.713c0,19.201 15.512,34.713 34.713,34.713l0,11.933c0,45.995 18.333,90.145 50.877,122.689l73.548,73.657l-73.548,73.657c-32.544,32.544 -50.877,76.695 -50.877,122.69l0,11.932c-19.201,0 -34.713,15.513 -34.713,34.713c0,19.201 15.512,34.714 34.713,34.714l347.132,-0c19.201,-0 34.713,-15.513 34.713,-34.714c0,-19.2 -15.512,-34.713 -34.713,-34.713l0,-11.932c0,-45.995 -18.333,-90.146 -50.877,-122.69l-73.548,-73.657l73.657,-73.657c32.544,-32.544 50.876,-76.694 50.876,-122.689l0,-11.933c19.201,0 34.714,-15.512 34.714,-34.713c-0,-19.201 -15.513,-34.713 -34.714,-34.713l-347.24,-0Zm69.427,81.359l-0,-11.933l208.279,0l-0,11.933c-0,20.611 -6.075,40.571 -17.357,57.493l-173.566,0c-11.173,-16.922 -17.356,-36.882 -17.356,-57.493Zm17.356,335.199c3.797,-5.75 8.245,-11.173 13.126,-16.163l73.657,-73.549l73.657,73.657c4.99,4.99 9.329,10.414 13.235,16.163l-173.675,0l0,-0.108Z" style="fill:#fff;fill-rule:nonzero;"/><g><g><path d="M59.909,1862.59l232.352,-2.382" style="fill:none;"/><path d="M60.464,1916.75l232.352,-2.382c29.894,-0.306 53.915,-24.825 53.609,-54.719c-0.307,-29.894 -24.825,-53.915 -54.719,-53.608l-232.352,2.381c-29.894,0.307 -53.915,24.826 -53.609,54.719c0.307,29.894 24.825,53.915 54.719,53.609Z" style="fill:#fff;"/><path d="M63.082,1513.77l278.239,-2.852" style="fill:none;"/><path d="M63.638,1567.93l278.238,-2.852c29.894,-0.307 53.915,-24.825 53.608,-54.719c-0.306,-29.894 -24.825,-53.915 -54.719,-53.609l-278.238,2.852c-29.894,0.307 -53.915,24.826 -53.608,54.719c0.306,29.894 24.825,53.915 54.719,53.609Z" style="fill:#fff;"/><path d="M271.442,1165.65l212.901,-2.182" style="fill:none;"/><path d="M271.997,1219.81l212.901,-2.182c29.894,-0.307 53.916,-24.825 53.609,-54.719c-0.306,-29.894 -24.825,-53.915 -54.719,-53.609l-212.901,2.183c-29.894,0.306 -53.915,24.825 -53.609,54.719c0.306,29.893 24.825,53.915 54.719,53.608Z" style="fill:#fff;"/></g><path d="M1009.14,1126.41l271.623,198.543l-144.528,397.087l-416.151,198.543l-271.623,-198.543l144.528,-397.087l416.151,-198.543Z" style="fill:none;"/><clipPath id="_clip2"><path d="M1009.14,1126.41l271.623,198.543l-144.528,397.087l-416.151,198.543l-271.623,-198.543l144.528,-397.087l416.151,-198.543Z"/></clipPath><g clip-path="url(#_clip2)"><g transform="matrix(0.485177,0,-0.36397,1,1144.62,0)"><text x="160.331px" y="1672.93px" style="font-family:'Helvetica-Bold', 'Helvetica';font-weight:700;font-size:407.251px;fill:#fff;">NFT</text></g></g><path d="M1009.14,1126.41l271.623,198.543l-144.528,397.087l-416.151,198.543l-271.623,-198.543l144.528,-397.087l416.151,-198.543Z" style="fill:none;stroke:#fff;stroke-width:108.33px;"/></g></g></g></svg>