<?xml version="1.0" encoding="UTF-8" standalone="no"?><!DOCTYPE svg PUBLIC "-//W3C//DTD SVG 1.1//EN" "http://www.w3.org/Graphics/SVG/1.1/DTD/svg11.dtd"><svg width="100%" height="100%" viewBox="0 0 1667 2500" version="1.1" xmlns="http://www.w3.org/2000/svg" xmlns:xlink="http://www.w3.org/1999/xlink" xml:space="preserve" xmlns:serif="http://www.serif.com/" style="fill-rule:evenodd;clip-rule:evenodd;stroke-linejoin:round;stroke-miterlimit:2;"><rect id="Prancheta1" x="0" y="0" width="1666.67" height="2500" style="fill:none;"/><g><path d="M340.449,752.364l-0,-75.59c-0,-41.395 39.497,-74.691 88.603,-74.691l59.247,0c49.105,0 88.603,33.296 88.603,74.691l-0,76.49c82.732,3.599 162.795,27.446 229.514,69.291c29.89,18.448 33.093,55.343 6.405,76.94l-87.002,69.741c-20.282,16.648 -50.706,17.098 -74.725,4.5c-28.823,-15.298 -60.848,-22.948 -95.009,-22.948l-207.63,0c-48.038,0 -87.002,36.896 -87.002,82.34c0,36.895 26.688,69.741 64.584,79.19l332.529,84.139c137.175,34.645 233.251,145.781 233.251,270.415c-0,152.98 -140.911,276.715 -315.449,280.764l0,75.59c0,41.395 -39.498,74.691 -88.603,74.691l-59.247,-0c-49.105,-0 -88.603,-33.296 -88.603,-74.691l-0,-76.49c-82.732,-3.599 -162.795,-27.446 -229.514,-69.291c-29.891,-18.448 -33.093,-55.343 -6.405,-76.94l87.002,-69.741c20.282,-16.648 50.706,-17.098 74.725,-4.5c28.823,15.299 60.848,22.948 95.008,22.948l207.631,-0c48.038,-0 87.002,-36.896 87.002,-82.34c-0,-36.895 -26.688,-69.741 -64.585,-79.19l-332.528,-84.139c-137.175,-34.645 -233.251,-145.781 -233.251,-270.415c0.533,-152.859 140.689,-276.518 315.449,-280.764Z" style="fill:none;stroke:#fff;stroke-width:50px;"/><path d="M1322.92,906.25c189.72,0 343.75,154.029 343.75,343.75c-0,189.721 -154.03,343.75 -343.75,343.75c-189.721,0 -343.75,-154.029 -343.75,-343.75c-0,-189.721 154.029,-343.75 343.75,-343.75Zm-50.329,119.924l0,-33.999c0,-18.618 16.852,-33.594 37.804,-33.594l25.278,-0c20.951,-0 37.803,14.976 37.803,33.594l-0,34.404c35.298,1.619 69.457,12.345 97.923,31.165c12.753,8.298 14.12,24.892 2.733,34.606l-37.12,31.368c-8.653,7.488 -21.634,7.691 -31.882,2.024c-12.297,-6.881 -25.961,-10.321 -40.536,-10.321l-88.587,0c-20.495,0 -37.12,16.595 -37.12,37.035c0,16.594 11.387,31.368 27.556,35.617l141.875,37.844c58.527,15.583 99.518,65.57 99.518,121.627c0,68.808 -60.12,124.461 -134.588,126.282l-0,33.999c-0,18.618 -16.852,33.594 -37.803,33.594l-25.278,0c-20.951,0 -37.803,-14.976 -37.803,-33.594l-0,-34.404c-35.298,-1.619 -69.458,-12.345 -97.924,-31.165c-12.753,-8.298 -14.119,-24.892 -2.733,-34.606l37.12,-31.368c8.654,-7.488 21.634,-7.691 31.882,-2.024c12.298,6.881 25.961,10.321 40.536,10.321l88.587,-0c20.496,-0 37.12,-16.595 37.12,-37.035c-0,-16.594 -11.387,-31.368 -27.555,-35.617l-141.876,-37.844c-58.527,-15.583 -99.518,-65.57 -99.518,-121.627c0.228,-68.753 60.026,-124.372 134.588,-126.282Z" style="fill:#fff;"/></g></svg>