<?xml version="1.0" encoding="UTF-8" standalone="no"?><!DOCTYPE svg PUBLIC "-//W3C//DTD SVG 1.1//EN" "http://www.w3.org/Graphics/SVG/1.1/DTD/svg11.dtd"><svg width="100%" height="100%" viewBox="0 0 1667 2500" version="1.1" xmlns="http://www.w3.org/2000/svg" xmlns:xlink="http://www.w3.org/1999/xlink" xml:space="preserve" xmlns:serif="http://www.serif.com/" style="fill-rule:evenodd;clip-rule:evenodd;stroke-linejoin:round;stroke-miterlimit:2;"><rect id="Prancheta1" x="0" y="0" width="1666.67" height="2500" style="fill:none;"/><clipPath id="_clip1"><rect x="0" y="0" width="1666.67" height="2500"/></clipPath><g clip-path="url(#_clip1)"><g><path d="M89.61,1295.83c-49.491,0 -89.61,41.939 -89.61,93.674c0,51.735 40.119,93.674 89.61,93.674c49.49,-0 89.609,-41.939 89.609,-93.674c0,-51.735 -40.119,-93.674 -89.609,-93.674Zm570.233,23.419c10.107,0.001 18.299,13.979 18.299,31.224l-0,78.062c-0,17.246 -8.192,31.224 -18.299,31.224l-402.585,0c-10.107,0 -18.299,-13.978 -18.299,-31.224l-0,-78.062c-0,-17.245 8.192,-31.223 18.299,-31.224l402.585,-0Zm-570.233,-335.664c-49.491,-0 -89.61,41.938 -89.61,93.673c-0,51.736 40.119,93.674 89.61,93.674c49.49,0 89.609,-41.938 89.609,-93.674c0,-51.735 -40.119,-93.673 -89.609,-93.673Zm570.457,23.418c10.113,0.001 18.309,13.98 18.309,31.225l0,78.061c0,17.246 -8.197,31.225 -18.309,31.225l-402.799,-0c-10.112,-0 -18.309,-13.979 -18.309,-31.225l-0,-78.061c-0,-17.245 8.196,-31.224 18.309,-31.225l402.799,0Zm-480.848,-241.99c0,51.735 -40.119,93.673 -89.609,93.673c-49.491,0 -89.61,-41.938 -89.61,-93.673c0,-51.736 40.119,-93.674 89.61,-93.674c49.49,-0 89.609,41.938 89.609,93.674Zm746.747,-70.256c16.498,0.001 29.87,13.98 29.87,31.225l-0,78.061c-0,17.246 -13.373,31.225 -29.87,31.225l-657.137,-0c-16.498,-0 -29.87,-13.979 -29.87,-31.225l-0,-78.061c-0,-17.245 13.372,-31.224 29.87,-31.225l657.137,0Z" style="fill:#fff;"/><path d="M904.688,958.333c-60.04,0 -108.855,48.815 -108.855,108.854l0,489.844c0,60.04 48.815,108.854 108.855,108.854l163.281,0l-0,136.068c-0,10.375 5.783,19.73 14.967,24.322c9.185,4.593 20.24,3.572 28.574,-2.551l210.395,-157.839l235.908,0c60.039,0 108.854,-48.814 108.854,-108.854l-0,-489.844c-0,-60.039 -48.815,-108.854 -108.854,-108.854l-653.125,0Z" style="fill:#fff;fill-rule:nonzero;"/></g></g></svg>