<?xml version="1.0" encoding="UTF-8" standalone="no"?><!DOCTYPE svg PUBLIC "-//W3C//DTD SVG 1.1//EN" "http://www.w3.org/Graphics/SVG/1.1/DTD/svg11.dtd"><svg width="100%" height="100%" viewBox="0 0 1667 2500" version="1.1" xmlns="http://www.w3.org/2000/svg" xmlns:xlink="http://www.w3.org/1999/xlink" xml:space="preserve" xmlns:serif="http://www.serif.com/" style="fill-rule:evenodd;clip-rule:evenodd;stroke-linejoin:round;stroke-miterlimit:2;"><rect id="Prancheta1" x="-0" y="0" width="1666.67" height="2500" style="fill:none;"/><clipPath id="_clip1"><rect x="-0" y="0" width="1666.67" height="2500"/></clipPath><g clip-path="url(#_clip1)"><g><g><path d="M1168.29,769.396l-0,-46.892c-0,-25.678 22.941,-46.333 51.462,-46.333l34.412,0c28.521,0 51.462,20.655 51.462,46.333l0,47.45c48.052,2.233 94.555,17.026 133.307,42.983c17.36,11.444 19.22,34.331 3.72,47.729l-50.533,43.262c-11.78,10.328 -29.451,10.607 -43.402,2.792c-16.741,-9.49 -35.341,-14.235 -55.182,-14.235l-120.596,-0c-27.902,-0 -50.533,22.887 -50.533,51.078c0,22.887 15.501,43.262 37.512,49.124l193.139,52.194c79.674,21.492 135.477,90.433 135.477,167.747c-0,94.899 -81.844,171.655 -183.219,174.167l0,46.892c0,25.678 -22.941,46.333 -51.462,46.333l-34.412,-0c-28.521,-0 -51.462,-20.655 -51.462,-46.333l-0,-47.45c-48.053,-2.233 -94.555,-17.026 -133.307,-42.983c-17.361,-11.444 -19.221,-34.331 -3.72,-47.729l50.532,-43.262c11.781,-10.328 29.452,-10.607 43.402,-2.792c16.741,9.49 35.342,14.235 55.183,14.235l120.596,0c27.901,0 50.532,-22.887 50.532,-51.078c0,-22.887 -15.5,-43.262 -37.511,-49.124l-193.14,-52.194c-79.674,-21.492 -135.476,-90.433 -135.476,-167.747c0.31,-94.824 81.714,-171.534 183.219,-174.167Z" style="fill:#fff;"/><path d="M1639.82,1538.67c-29.815,-28.305 -75.87,-26.453 -107.283,-0l-232.135,195.488c-28.485,24.072 -63.891,37.034 -100.628,37.034l-297.358,-0c-22.095,-0 -40.197,-19.046 -40.197,-42.325c-0,-23.279 18.102,-42.325 40.197,-42.325l196.73,0c40.198,0 77.201,-28.834 83.59,-70.365c8.253,-52.906 -30.614,-98.934 -79.33,-98.934l-402.245,-0c-67.884,-0 -133.638,24.601 -186.081,69.571l-116.867,99.728l-139.494,0c-22.096,0 -40.198,19.046 -40.198,42.325l-0,253.949c-0,23.278 18.102,42.325 40.198,42.325l896.864,-0c36.471,-0 71.877,-12.962 100.628,-37.035l380.149,-320.081c38.28,-31.963 41.254,-93.206 3.46,-129.355Z" style="fill:#fff;"/></g><path d="M99.495,1153.96c-54.95,0 -99.495,46.272 -99.495,103.352c-0,57.08 44.545,103.351 99.495,103.351c54.951,-0 99.496,-46.271 99.496,-103.351c-0,-57.08 -44.545,-103.352 -99.496,-103.352Zm678.972,25.838c12.323,0.001 22.311,15.424 22.311,34.451l-0,86.126c-0,19.027 -9.989,34.45 -22.311,34.45l-490.835,0c-12.323,0 -22.311,-15.423 -22.311,-34.45l0,-86.126c0,-19.027 9.988,-34.45 22.311,-34.451l490.835,0Zm-678.972,-370.342c-54.95,0 -99.495,46.271 -99.495,103.351c-0,57.081 44.545,103.352 99.495,103.352c54.951,-0 99.496,-46.271 99.496,-103.352c-0,-57.08 -44.545,-103.351 -99.496,-103.351Zm679.016,25.838c12.324,0.001 22.313,15.424 22.313,34.45l-0,86.127c-0,19.027 -9.989,34.45 -22.313,34.45l-490.877,-0c-12.324,-0 -22.313,-15.423 -22.313,-34.45l0,-86.127c0,-19.026 9.989,-34.449 22.313,-34.45l490.877,0Zm-579.52,-266.991c-0,57.08 -44.545,103.352 -99.496,103.352c-54.95,-0 -99.495,-46.272 -99.495,-103.352c-0,-57.08 44.545,-103.351 99.495,-103.351c54.951,0 99.496,46.271 99.496,103.351Zm829.129,-77.513c18.318,0.001 33.165,15.423 33.165,34.45l-0,86.126c-0,19.028 -14.848,34.451 -33.165,34.451l-729.634,-0c-18.317,-0 -33.165,-15.423 -33.165,-34.451l0,-86.126c0,-19.027 14.847,-34.449 33.165,-34.45l729.634,-0Z" style="fill:#fff;"/></g></g></svg>