<?xml version="1.0" encoding="UTF-8" standalone="no"?><!DOCTYPE svg PUBLIC "-//W3C//DTD SVG 1.1//EN" "http://www.w3.org/Graphics/SVG/1.1/DTD/svg11.dtd"><svg width="100%" height="100%" viewBox="0 0 1667 2500" version="1.1" xmlns="http://www.w3.org/2000/svg" xmlns:xlink="http://www.w3.org/1999/xlink" xml:space="preserve" xmlns:serif="http://www.serif.com/" style="fill-rule:evenodd;clip-rule:evenodd;stroke-linecap:round;stroke-linejoin:round;stroke-miterlimit:1.5;"><rect id="Prancheta1" x="0" y="0" width="1666.67" height="2500" style="fill:none;"/><g><path d="M240.473,1695.05l-240.473,338.287l0,-1370.86c0,-107.897 87.598,-195.496 195.497,-195.498l1275.67,0c107.9,0.002 195.498,87.601 195.498,195.498l-0,837.078c-0,107.895 -87.596,195.493 -195.498,195.497l-1230.7,0Zm593.604,-1079.41c256.681,-0 465.073,212.551 465.073,474.355c0,261.804 -208.392,474.356 -465.073,474.356c-256.681,-0 -465.073,-212.552 -465.073,-474.356c0,-261.804 208.392,-474.355 465.073,-474.355Z" style="fill:#fefefe;"/><ellipse cx="833.333" cy="1089.99" rx="149.348" ry="148.829" style="fill:#fff;stroke:#fff;stroke-width:145.83px;"/></g></svg>