<?xml version="1.0" encoding="UTF-8" standalone="no"?><!DOCTYPE svg PUBLIC "-//W3C//DTD SVG 1.1//EN" "http://www.w3.org/Graphics/SVG/1.1/DTD/svg11.dtd"><svg width="100%" height="100%" viewBox="0 0 1667 2500" version="1.1" xmlns="http://www.w3.org/2000/svg" xmlns:xlink="http://www.w3.org/1999/xlink" xml:space="preserve" xmlns:serif="http://www.serif.com/" style="fill-rule:evenodd;clip-rule:evenodd;stroke-linejoin:round;stroke-miterlimit:2;"><rect id="Prancheta1" x="0" y="0" width="1666.67" height="2500" style="fill:none;"/><g><path d="M292.343,753.101l0,-75.738c0,-41.476 36.605,-74.836 82.113,-74.836l54.908,-0c45.508,-0 82.113,33.36 82.113,74.836l-0,76.64c76.672,3.606 150.871,27.5 212.703,69.426c27.701,18.484 30.669,55.452 5.936,77.091l-80.629,69.877c-18.797,16.681 -46.993,17.132 -69.253,4.509c-26.711,-15.328 -56.391,-22.992 -88.049,-22.992l-192.422,-0c-44.519,-0 -80.629,36.967 -80.629,82.5c-0,36.968 24.733,69.878 59.853,79.345l308.173,84.304c127.127,34.713 216.165,146.066 216.165,270.944c0,153.279 -130.589,277.255 -292.343,281.313l0,75.738c0,41.476 -36.605,74.836 -82.113,74.836l-54.907,0c-45.509,0 -82.114,-33.36 -82.114,-74.836l0,-76.64c-76.672,-3.606 -150.87,-27.5 -212.703,-69.426c-27.701,-18.484 -30.668,-55.452 -5.936,-77.091l80.63,-69.877c18.797,-16.681 46.992,-17.132 69.252,-4.509c26.712,15.328 56.391,22.992 88.049,22.992l192.422,0c44.52,0 80.63,-36.967 80.63,-82.5c-0,-36.968 -24.733,-69.878 -59.854,-79.345l-308.172,-84.304c-127.127,-34.713 -216.166,-146.066 -216.166,-270.944c0.494,-153.158 130.384,-277.059 292.343,-281.313Z" style="fill:#fff;"/><path d="M1289.68,599.106c206.17,-0 373.555,167.384 373.555,373.555c-0,206.17 -167.385,373.555 -373.555,373.555c-206.171,-0 -373.555,-167.385 -373.555,-373.555c-0,-206.171 167.384,-373.555 373.555,-373.555Zm73.811,569.5l-0,-247.195c-0,-12.865 -10.095,-23.295 -22.549,-23.295l-126.277,0c-12.454,0 -22.549,10.43 -22.549,23.295l-0,55.642c-0,12.866 10.095,23.295 22.549,23.295l22.549,-0l0,168.258l-22.549,-0c-12.454,-0 -22.549,10.429 -22.549,23.295l-0,55.641c-0,12.866 10.095,23.295 22.549,23.295l171.375,0c12.455,-0.001 22.55,-10.43 22.55,-23.295l-0,-55.641c-0,-12.866 -10.095,-23.294 -22.55,-23.295l-22.549,-0Zm-63.138,-494.122c-44.834,-0 -81.178,37.546 -81.178,83.862c-0,46.317 36.344,83.862 81.178,83.862c44.834,0 81.177,-37.545 81.177,-83.862c0,-46.316 -36.345,-83.862 -81.177,-83.862Z" style="fill:#fff;"/></g></svg>