<?xml version="1.0" encoding="UTF-8" standalone="no"?><!DOCTYPE svg PUBLIC "-//W3C//DTD SVG 1.1//EN" "http://www.w3.org/Graphics/SVG/1.1/DTD/svg11.dtd"><svg width="100%" height="100%" viewBox="0 0 1667 2500" version="1.1" xmlns="http://www.w3.org/2000/svg" xmlns:xlink="http://www.w3.org/1999/xlink" xml:space="preserve" xmlns:serif="http://www.serif.com/" style="fill-rule:evenodd;clip-rule:evenodd;stroke-linejoin:round;stroke-miterlimit:2;"><rect id="Prancheta1" x="0" y="0" width="1666.67" height="2500" style="fill:none;"/><g><g><path d="M919.102,1858.44l438.662,0c34.61,0 62.666,28.191 62.666,62.968l0,41.978c0,34.776 -28.056,62.967 -62.666,62.967l-1044.43,0c-34.61,0 -62.666,-28.191 -62.666,-62.967l0,-41.978c0,-34.777 28.056,-62.968 62.666,-62.968l438.663,0l-0,-982.534c-61.442,-26.982 -107.483,-82.765 -121.147,-150.398l-317.516,0c-34.61,0 -62.666,-28.191 -62.666,-62.967l0,-41.978c0,-34.777 28.056,-62.968 62.666,-62.968l355.105,0c38.109,-50.977 98.775,-83.956 167.112,-83.956c68.338,-0 129.004,32.979 167.112,83.956l355.105,0c34.61,0 62.666,28.191 62.666,62.968l0,41.978c0,34.776 -28.056,62.967 -62.666,62.967l-317.515,0c-13.664,67.633 -59.706,123.416 -121.147,150.398l0,982.534Z" style="fill:#fff;"/><path d="M1666.62,1483.6c-3.636,-2.457 -666.964,-6.754 -668.339,0l-0.049,0c-0,115.366 149.636,208.887 334.219,208.887c184.583,-0 334.219,-93.521 334.219,-208.887l-0.05,0Z" style="fill:#fff;"/><path d="M668.388,1484.83c-3.636,-2.458 -666.964,-6.754 -668.338,-0l-0.05,-0c-0,115.365 149.636,208.887 334.219,208.887c184.583,-0 334.219,-93.522 334.219,-208.887l-0.05,-0Z" style="fill:#fff;"/></g><path d="M1279.1,893.799l-0,-34.693c-0,-18.998 17.034,-34.279 38.212,-34.279l25.552,0c21.177,0 38.212,15.281 38.212,34.279l-0,35.106c35.68,1.652 70.209,12.596 98.983,31.801c12.891,8.467 14.272,25.4 2.762,35.312l-37.521,32.008c-8.748,7.64 -21.869,7.847 -32.227,2.065c-12.431,-7.021 -26.242,-10.532 -40.975,-10.532l-89.545,0c-20.718,0 -37.522,16.933 -37.522,37.79c0,16.933 11.51,32.008 27.854,36.345l143.41,38.616c59.16,15.9 100.595,66.906 100.595,124.107c-0,70.211 -60.771,126.999 -136.044,128.858l-0,34.692c-0,18.998 -17.035,34.279 -38.213,34.279l-25.551,0c-21.178,0 -38.212,-15.281 -38.212,-34.279l-0,-35.105c-35.68,-1.652 -70.209,-12.597 -98.983,-31.802c-12.891,-8.466 -14.272,-25.399 -2.763,-35.311l37.522,-32.008c8.747,-7.641 21.868,-7.847 32.227,-2.065c12.43,7.021 26.242,10.531 40.974,10.531l89.546,0c20.717,0 37.521,-16.933 37.521,-37.79c0,-16.933 -11.51,-32.007 -27.853,-36.344l-143.411,-38.616c-59.16,-15.901 -100.594,-66.907 -100.594,-124.108c0.23,-70.155 60.675,-126.909 136.044,-128.857Z" style="fill:#fff;"/><path d="M301.286,1032.07l-0,-25.085c-0,-13.738 10.856,-24.788 24.354,-24.788l16.285,0c13.497,0 24.354,11.05 24.354,24.788l-0,25.384c22.74,1.194 44.746,9.108 63.085,22.995c8.216,6.122 9.096,18.367 1.761,25.534l-23.914,23.144c-5.575,5.525 -13.938,5.675 -20.54,1.494c-7.922,-5.077 -16.725,-7.616 -26.114,-7.616l-57.071,0c-13.204,0 -23.913,12.245 -23.913,27.326c-0,12.244 7.335,23.145 17.752,26.28l91.4,27.923c37.705,11.498 64.113,48.38 64.113,89.741c-0,50.769 -38.732,91.832 -86.706,93.176l-0,25.086c-0,13.737 -10.857,24.787 -24.354,24.787l-16.285,-0c-13.497,-0 -24.354,-11.05 -24.354,-24.787l0,-25.385c-22.74,-1.194 -44.747,-9.108 -63.086,-22.995c-8.215,-6.122 -9.096,-18.366 -1.76,-25.534l23.914,-23.144c5.575,-5.525 13.937,-5.674 20.539,-1.493c7.923,5.076 16.725,7.615 26.115,7.615l57.07,-0c13.204,-0 23.914,-12.244 23.914,-27.326c0,-12.244 -7.335,-23.144 -17.752,-26.28l-91.401,-27.923c-37.704,-11.497 -64.112,-48.379 -64.112,-89.741c0.146,-50.729 38.67,-91.767 86.706,-93.176Z" style="fill:#fff;"/></g></svg>