<?xml version="1.0" encoding="UTF-8" standalone="no"?><!DOCTYPE svg PUBLIC "-//W3C//DTD SVG 1.1//EN" "http://www.w3.org/Graphics/SVG/1.1/DTD/svg11.dtd"><svg width="100%" height="100%" viewBox="0 0 1667 2500" version="1.1" xmlns="http://www.w3.org/2000/svg" xmlns:xlink="http://www.w3.org/1999/xlink" xml:space="preserve" xmlns:serif="http://www.serif.com/" style="fill-rule:evenodd;clip-rule:evenodd;stroke-linejoin:round;stroke-miterlimit:2;"><rect id="Prancheta1" x="0" y="0" width="1666.67" height="2500" style="fill:none;"/><clipPath id="_clip1"><rect x="0" y="0" width="1666.67" height="2500"/></clipPath><g clip-path="url(#_clip1)"><g><g><path d="M1297.33,1905.24c20.788,-0 47.345,24.037 47.345,44.825l0.398,71.18c-0,20.788 -28.58,37.166 -49.368,37.166l-1257.91,2.686c-20.788,-0 -37.796,-17.009 -37.796,-37.797l-0,-1085.58c-0,-20.788 17.008,-37.797 37.796,-37.797l85.73,0c20.788,0 37.796,17.009 37.796,37.797l0,970.104l1136.01,-2.586Z" style="fill:#fff;"/><path d="M1238.32,1776.19l-0,-226.778c-0,-20.788 -17.008,-37.796 -37.796,-37.796l-125.988,-0c-20.788,-0 -37.796,17.008 -37.796,37.796l-0,226.778c-0,20.788 17.008,37.796 37.796,37.796l125.988,0c20.788,0 37.796,-17.008 37.796,-37.796Z" style="fill:#fff;"/><path d="M514.607,1776.19l-0,-428.358c-0,-20.788 -17.008,-37.796 -37.796,-37.796l-125.988,-0c-20.788,-0 -37.796,17.008 -37.796,37.796l-0,428.358c-0,20.788 17.008,37.796 37.796,37.796l125.988,0c20.788,0 37.796,-17.008 37.796,-37.796Z" style="fill:#fff;"/><path d="M879.23,1776.19l0,-629.938c0,-20.788 -17.008,-37.796 -37.796,-37.796l-125.988,-0c-20.787,-0 -37.796,17.008 -37.796,37.796l0,629.938c0,20.788 17.009,37.796 37.796,37.796l125.988,0c20.788,0 37.796,-17.008 37.796,-37.796Z" style="fill:#fff;"/></g><g><path d="M1326.47,622.913l-0,-35.104c-0,-19.224 15.788,-34.686 35.417,-34.686l23.682,-0c19.629,-0 35.418,15.462 35.418,34.686l-0,35.522c33.07,1.671 65.073,12.746 91.743,32.178c11.948,8.567 13.228,25.702 2.56,35.731l-34.777,32.388c-8.108,7.731 -20.269,7.94 -29.87,2.089c-11.521,-7.104 -24.323,-10.656 -37.977,-10.656l-82.996,-0c-19.202,-0 -34.777,17.134 -34.777,38.238c0,17.134 10.668,32.388 25.816,36.776l132.921,39.074c54.832,16.089 93.237,67.7 93.237,125.58c-0,71.044 -56.326,128.506 -126.094,130.386l0,35.104c0,19.224 -15.788,34.687 -35.417,34.687l-23.682,-0c-19.629,-0 -35.417,-15.463 -35.417,-34.687l-0,-35.521c-33.071,-1.672 -65.074,-12.747 -91.744,-32.179c-11.947,-8.567 -13.228,-25.701 -2.56,-35.731l34.777,-32.388c8.108,-7.731 20.269,-7.94 29.87,-2.089c11.521,7.104 24.323,10.656 37.977,10.656l82.996,0c19.202,0 34.777,-17.134 34.777,-38.238c-0,-17.134 -10.668,-32.387 -25.816,-36.775l-132.921,-39.074c-54.832,-16.09 -93.236,-67.701 -93.236,-125.581c0.213,-70.987 56.237,-128.414 126.093,-130.386Z" style="fill:#fff;"/><path d="M1627.34,438.904c21.708,0.001 39.332,19.192 39.332,42.83l-0,743.241c-0,23.638 -17.624,42.829 -39.332,42.829l-509.208,0c-21.708,0 -39.332,-19.191 -39.332,-42.829l0,-743.241c0,-23.638 17.624,-42.829 39.332,-42.83l509.208,0Zm-27.532,76.89l-451.556,0.04l0.172,679.321l452.506,0l-1.122,-679.361Z" style="fill:#fff;"/></g></g></g></svg>