<?xml version="1.0" encoding="UTF-8" standalone="no"?><!DOCTYPE svg PUBLIC "-//W3C//DTD SVG 1.1//EN" "http://www.w3.org/Graphics/SVG/1.1/DTD/svg11.dtd"><svg width="100%" height="100%" viewBox="0 0 1667 2500" version="1.1" xmlns="http://www.w3.org/2000/svg" xmlns:xlink="http://www.w3.org/1999/xlink" xml:space="preserve" xmlns:serif="http://www.serif.com/" style="fill-rule:evenodd;clip-rule:evenodd;stroke-linejoin:round;stroke-miterlimit:2;"><rect id="Prancheta1" x="0" y="0" width="1666.67" height="2500" style="fill:none;"/><clipPath id="_clip1"><rect x="0" y="0" width="1666.67" height="2500"/></clipPath><g clip-path="url(#_clip1)"><path d="M212.5,416.667c-114.909,-0 -208.333,93.424 -208.333,208.333l-0,937.5c-0,114.909 93.424,208.333 208.333,208.333l312.5,0l0,260.417c0,19.857 11.068,37.76 28.646,46.549c17.578,8.79 38.737,6.836 54.687,-4.882l402.67,-302.084l451.497,0c114.909,0 208.333,-93.424 208.333,-208.333l0,-937.5c0,-114.909 -93.424,-208.333 -208.333,-208.333l-1250,-0Zm563.194,1104.17l0,-304.023c19.41,3.546 39.38,5.412 59.723,5.412c20.343,0 40.312,-1.866 59.722,-5.412l-0,304.023c-0,33.034 -26.688,59.723 -59.722,59.723c-33.034,-0 -59.723,-26.689 -59.723,-59.723Zm328.473,-627.083c-0,148.372 -120.378,268.75 -268.75,268.75c-148.373,-0 -268.75,-120.378 -268.75,-268.75c-0,-148.372 120.377,-268.75 268.75,-268.75c148.372,0 268.75,120.378 268.75,268.75Zm-268.75,-119.444c16.423,-0 29.861,-13.438 29.861,-29.862c-0,-16.423 -13.438,-29.861 -29.861,-29.861c-98.915,0 -179.167,80.252 -179.167,179.167c-0,16.424 13.437,29.861 29.861,29.861c16.424,0 29.861,-13.437 29.861,-29.861c0,-65.881 53.564,-119.444 119.445,-119.444Z" style="fill:#fff;fill-rule:nonzero;"/></g></svg>