<?xml version="1.0" encoding="UTF-8" standalone="no"?><!DOCTYPE svg PUBLIC "-//W3C//DTD SVG 1.1//EN" "http://www.w3.org/Graphics/SVG/1.1/DTD/svg11.dtd"><svg width="100%" height="100%" viewBox="0 0 1667 2500" version="1.1" xmlns="http://www.w3.org/2000/svg" xmlns:xlink="http://www.w3.org/1999/xlink" xml:space="preserve" xmlns:serif="http://www.serif.com/" style="fill-rule:evenodd;clip-rule:evenodd;stroke-linejoin:round;stroke-miterlimit:1.41421;"><rect id="Prancheta1" x="0" y="0" width="1666.67" height="2500" style="fill:none;"/><clipPath id="_clip1"><rect x="0" y="0" width="1666.67" height="2500"/></clipPath><g clip-path="url(#_clip1)"><g><path d="M1228.25,730.932l28.863,-79.302c15.807,-43.428 66.973,-78.358 114.78,-78.358l57.68,-0c47.807,-0 73.546,34.93 57.74,78.358l-29.207,80.246c79.169,3.776 148.009,28.794 196.986,72.693c22.055,19.354 11.085,58.061 -23.144,80.718l-111.331,73.166c-26.103,17.465 -55.894,17.937 -74.467,4.72c-22.219,-16.049 -50.477,-24.074 -83.733,-24.074l-202.14,0c-46.767,0 -98.789,38.707 -116.141,86.383c-14.088,38.707 -0.648,73.165 32.638,83.078l291.606,88.271c120.318,36.346 171.417,152.939 123.826,283.693c-58.414,160.492 -242.845,290.302 -414.313,294.55l-28.864,79.302c-15.806,43.427 -66.973,78.358 -114.78,78.358l-57.679,0c-47.807,0 -73.546,-34.931 -57.74,-78.358l29.207,-80.246c-79.169,-3.776 -148.009,-28.794 -196.986,-72.693c-22.056,-19.354 -11.085,-58.061 23.143,-80.718l111.331,-73.166c26.103,-17.465 55.895,-17.937 74.468,-4.72c22.219,16.049 50.476,24.074 83.733,24.074l202.139,-0c46.767,-0 98.789,-38.707 116.142,-86.383c14.088,-38.707 0.648,-73.165 -32.638,-83.078l-291.607,-88.271c-120.318,-36.347 -171.416,-152.939 -123.826,-283.693c58.888,-160.365 242.554,-290.096 414.314,-294.55Z" style="fill:#fff;stroke:#fff;stroke-width:4.17px;"/><path d="M73.654,1598.53l406.068,-0.73" style="fill:none;"/><path d="M73.785,1671.45l406.068,-0.731c40.244,-0.072 72.858,-32.804 72.786,-73.047c-0.073,-40.244 -32.804,-72.858 -73.048,-72.786l-406.068,0.73c-40.244,0.073 -72.858,32.804 -72.786,73.048c0.073,40.244 32.804,72.858 73.048,72.786Z" style="fill:#fff;"/><path d="M75.642,1194.49l498.155,1.989" style="fill:none;"/><path d="M75.351,1267.41l498.155,1.989c40.243,0.161 73.046,-32.382 73.207,-72.625c0.16,-40.244 -32.382,-73.047 -72.625,-73.207l-498.155,-1.989c-40.243,-0.161 -73.046,32.381 -73.207,72.625c-0.161,40.243 32.381,73.046 72.625,73.207Z" style="fill:#fff;"/><path d="M405.112,793.092l319.858,0.231" style="fill:none;"/><path d="M405.059,866.009l319.859,0.231c40.243,0.029 72.94,-32.621 72.969,-72.864c0.029,-40.244 -32.62,-72.941 -72.864,-72.97l-319.859,-0.23c-40.243,-0.029 -72.94,32.62 -72.969,72.864c-0.029,40.243 32.62,72.94 72.864,72.969Z" style="fill:#fff;"/></g></g></svg>