<?xml version="1.0" encoding="UTF-8" standalone="no"?><!DOCTYPE svg PUBLIC "-//W3C//DTD SVG 1.1//EN" "http://www.w3.org/Graphics/SVG/1.1/DTD/svg11.dtd"><svg width="100%" height="100%" viewBox="0 0 1667 2500" version="1.1" xmlns="http://www.w3.org/2000/svg" xmlns:xlink="http://www.w3.org/1999/xlink" xml:space="preserve" xmlns:serif="http://www.serif.com/" style="fill-rule:evenodd;clip-rule:evenodd;stroke-linecap:square;stroke-miterlimit:1.5;"><rect id="Prancheta1" x="0" y="0" width="1666.67" height="2500" style="fill:none;"/><clipPath id="_clip1"><rect x="0" y="0" width="1666.67" height="2500"/></clipPath><g clip-path="url(#_clip1)"><g><g><path d="M234.919,849.332l-0,-60.861c-0,-33.329 29.414,-60.137 65.984,-60.137l44.121,0c36.57,0 65.984,26.808 65.984,60.137l0,61.585c61.612,2.898 121.236,22.099 170.922,55.79c22.26,14.853 24.645,44.559 4.77,61.947l-64.791,56.152c-15.105,13.404 -37.762,13.766 -55.649,3.623c-21.465,-12.318 -45.314,-18.476 -70.754,-18.476l-154.625,-0c-35.774,-0 -64.791,29.706 -64.791,66.295c-0,29.706 19.874,56.151 48.096,63.759l247.639,67.744c102.155,27.895 173.704,117.375 173.704,217.723c0,123.171 -104.938,222.795 -234.918,226.055l-0,60.861c-0,33.329 -29.415,60.137 -65.984,60.137l-44.122,-0c-36.569,-0 -65.984,-26.808 -65.984,-60.137l0,-61.585c-61.611,-2.898 -121.235,-22.099 -170.922,-55.79c-22.26,-14.853 -24.645,-44.559 -4.77,-61.947l64.791,-56.152c15.105,-13.404 37.762,-13.766 55.65,-3.623c21.464,12.318 45.314,18.476 70.753,18.476l154.625,0c35.775,0 64.792,-29.706 64.792,-66.295c-0,-29.706 -19.875,-56.151 -48.097,-63.759l-247.638,-67.744c-102.156,-27.895 -173.705,-117.375 -173.705,-217.723c0.397,-123.074 104.773,-222.637 234.919,-226.055Z" style="fill:#fff;"/><path d="M940.967,1064.38l247.5,185.625l-247.5,185.625l-0,-371.25Z" style="fill:#fff;"/><path d="M709.92,1250l280.547,0" style="fill:none;stroke:#fff;stroke-width:91.67px;"/></g><path d="M1116.69,1016.51c-0.014,0.354 -0.021,0.709 -0.021,1.064c-0,13.786 10.85,25.131 24.035,25.131c0.143,-0 0.285,-0.002 0.427,-0.004l83.669,-0c13.995,-0 25.151,-11.982 26.976,-26.51c9.128,-69.56 54.765,-120.246 136.1,-120.246c69.572,-0 133.261,36.371 133.261,123.852c-0,67.333 -37.93,98.296 -97.866,145.377c-68.253,51.852 -122.308,112.4 -118.454,210.696l0.304,23.011c0.22,14.381 11.597,26.087 25.354,26.085l82.248,-0c13.909,-0 25.354,-11.967 25.354,-26.51l0,-11.134c0,-76.134 27.687,-98.296 102.43,-157.571c61.763,-49.095 126.162,-103.599 126.162,-218.013c-0,-160.223 -129.407,-237.63 -271.085,-237.63c-128.494,-0 -269.259,62.562 -278.894,242.402Zm157.905,611.093c-0,56.518 43.102,98.297 102.43,98.297c61.762,0 104.255,-41.779 104.255,-98.297c0,-58.532 -42.594,-99.675 -104.357,-99.675c-59.226,0 -102.328,41.143 -102.328,99.675Z" style="fill:#fff;fill-rule:nonzero;stroke:#fff;stroke-width:4.17px;stroke-linecap:butt;stroke-linejoin:round;stroke-miterlimit:2;"/></g></g></svg>