<?xml version="1.0" encoding="UTF-8" standalone="no"?><!DOCTYPE svg PUBLIC "-//W3C//DTD SVG 1.1//EN" "http://www.w3.org/Graphics/SVG/1.1/DTD/svg11.dtd"><svg width="100%" height="100%" viewBox="0 0 1667 2500" version="1.1" xmlns="http://www.w3.org/2000/svg" xmlns:xlink="http://www.w3.org/1999/xlink" xml:space="preserve" xmlns:serif="http://www.serif.com/" style="fill-rule:evenodd;clip-rule:evenodd;stroke-linecap:round;stroke-miterlimit:1.5;"><rect id="Prancheta1" x="0" y="0" width="1666.67" height="2500" style="fill:none;"/><clipPath id="_clip1"><rect x="0" y="0" width="1666.67" height="2500"/></clipPath><g clip-path="url(#_clip1)"><g><g><path d="M791.667,1687.5l750,0c68.945,0 125,-56.055 125,-125l-0,-500c-0,-68.945 -56.055,-125 -125,-125l-291.993,0c-33.203,0 -65.039,-13.086 -88.476,-36.523l-51.758,-51.954c-23.437,-23.437 -55.273,-36.523 -88.476,-36.523l-229.297,0c-68.946,0 -125,56.055 -125,125l-0,625c-0,68.945 56.054,125 125,125Zm238.647,-438.672l0,-45.45c0,-75.279 61.075,-136.353 136.353,-136.353c75.278,-0 136.352,61.074 136.352,136.353l0,45.45l15.151,0c33.425,0 60.601,27.176 60.601,60.602l-0,181.803c-0,33.425 -27.176,60.601 -60.601,60.601l-303.006,0c-33.426,0 -60.601,-27.176 -60.601,-60.601l-0,-181.803c-0,-33.426 27.175,-60.602 60.601,-60.602l15.15,0Zm60.601,-45.45l0,45.45l151.503,0l0,-45.45c0,-41.853 -33.899,-75.752 -75.751,-75.752c-41.853,0 -75.752,33.899 -75.752,75.752Z" style="fill:#fff;fill-rule:nonzero;"/></g><g><path d="M248.468,1801.16l0,-94.772l-133.946,-0.086l-0.121,-913.17l134.067,0.682l0,-94.972l-187.939,-0c-33.316,-0 -60.364,21.547 -60.364,48.087l-0,1006.14c-0,26.54 27.048,48.087 60.364,48.087l187.939,0Z" style="fill:#fff;stroke:#fff;stroke-width:4.17px;"/><path d="M607.246,1172.48l-0,155.042l-213.271,-0l-0,155.041l-232.563,-232.562l232.563,-232.562l-0,155.041l213.271,0Z" style="fill:#fff;stroke:#fff;stroke-width:4.17px;"/></g></g></g></svg>