<?xml version="1.0" encoding="UTF-8" standalone="no"?><!DOCTYPE svg PUBLIC "-//W3C//DTD SVG 1.1//EN" "http://www.w3.org/Graphics/SVG/1.1/DTD/svg11.dtd"><svg width="100%" height="100%" viewBox="0 0 1667 2500" version="1.1" xmlns="http://www.w3.org/2000/svg" xmlns:xlink="http://www.w3.org/1999/xlink" xml:space="preserve" xmlns:serif="http://www.serif.com/" style="fill-rule:evenodd;clip-rule:evenodd;stroke-linecap:round;stroke-miterlimit:1.5;"><rect id="Prancheta1" x="0" y="0" width="1666.67" height="2500" style="fill:none;"/><clipPath id="_clip1"><rect x="0" y="0" width="1666.67" height="2500"/></clipPath><g clip-path="url(#_clip1)"><g><g><path d="M1666.65,2015.13l-143.191,-0l-0.13,202.378l-1379.7,0.183l1.031,-202.561l-143.493,-0l-0,283.956c-0,50.337 32.556,91.204 72.655,91.204l1520.18,0c40.1,0 72.655,-40.867 72.655,-91.204l0,-283.956Z" style="fill:#fff;stroke:#fff;stroke-width:4.17px;"/><path d="M735.166,1697.8l197.49,0l-0,166.738l183.383,-0l-282.128,282.127l-282.128,-282.127l183.383,-0l0,-166.738Z" style="fill:#fff;stroke:#fff;stroke-width:4.17px;"/></g><path d="M829.744,184.708l577.351,333.333l-0,666.667l-577.351,333.333l-577.35,-333.333l0,-666.667l577.35,-333.333Z" style="fill:none;"/><clipPath id="_clip2"><path d="M829.744,184.708l577.351,333.333l-0,666.667l-577.351,333.333l-577.35,-333.333l0,-666.667l577.35,-333.333Z"/></clipPath><g clip-path="url(#_clip2)"><g transform="matrix(0.485177,0,0,1,2375.52,0)"><text x="-3866.73px" y="1102.25px" style="font-family:'Helvetica-Bold', 'Helvetica';font-weight:700;font-size:683.732px;fill:#fff;">NFT</text></g></g><path d="M829.744,184.708l577.351,333.333l-0,666.667l-577.351,333.333l-577.35,-333.333l0,-666.667l577.35,-333.333Z" style="fill:none;stroke:#fff;stroke-width:175px;stroke-linejoin:round;"/></g></g></svg>